<?xml version="1.0" encoding="UTF-8" standalone="no"?>
<!-- Created with Inkscape (http://www.inkscape.org/) -->

<svg
   xmlns:dc="http://purl.org/dc/elements/1.1/"
   xmlns:cc="http://creativecommons.org/ns#"
   xmlns:rdf="http://www.w3.org/1999/02/22-rdf-syntax-ns#"
   xmlns:svg="http://www.w3.org/2000/svg"
   xmlns="http://www.w3.org/2000/svg"
   xmlns:sodipodi="http://sodipodi.sourceforge.net/DTD/sodipodi-0.dtd"
   xmlns:inkscape="http://www.inkscape.org/namespaces/inkscape"
   width="841mm"
   height="594mm"
   viewBox="0 0 841 594"
   version="1.1"
   id="svg3133"
   inkscape:version="0.92.1 r15371"
   sodipodi:docname="WingAirKit.svg"
   inkscape:export-filename="/home/reglnx/WingAirKit.png"
   inkscape:export-xdpi="600"
   inkscape:export-ydpi="600">
  <title
     id="title4756">Wing Air Art Kit</title>
  <defs
     id="defs3127" />
  <sodipodi:namedview
     id="base"
     pagecolor="#ffffff"
     bordercolor="#666666"
     borderopacity="1.0"
     inkscape:pageopacity="0.0"
     inkscape:pageshadow="2"
     inkscape:zoom="0.175"
     inkscape:cx="1523.6386"
     inkscape:cy="1090.1462"
     inkscape:document-units="mm"
     inkscape:current-layer="layer1"
     showgrid="false"
     inkscape:window-width="1280"
     inkscape:window-height="745"
     inkscape:window-x="0"
     inkscape:window-y="22"
     inkscape:window-maximized="1"
     inkscape:showpageshadow="false" />
  <metadata
     id="metadata3130">
    <rdf:RDF>
      <cc:Work
         rdf:about="">
        <dc:format>image/svg+xml</dc:format>
        <dc:type
           rdf:resource="http://purl.org/dc/dcmitype/StillImage" />
        <dc:title>Wing Air Art Kit</dc:title>
        <dc:date>03/10/2018</dc:date>
        <dc:creator>
          <cc:Agent>
            <dc:title>Megaf Cassini</dc:title>
          </cc:Agent>
        </dc:creator>
        <dc:rights>
          <cc:Agent>
            <dc:title>Copyright Megaf Cassini - https://www.megaf.info/</dc:title>
          </cc:Agent>
        </dc:rights>
        <dc:publisher>
          <cc:Agent>
            <dc:title>https://www.megaf.info/</dc:title>
          </cc:Agent>
        </dc:publisher>
        <dc:subject>
          <rdf:Bag>
            <rdf:li>wing air</rdf:li>
            <rdf:li>art kit</rdf:li>
            <rdf:li>kit</rdf:li>
            <rdf:li>livery</rdf:li>
          </rdf:Bag>
        </dc:subject>
        <dc:description>Kit for aircraft artits and creators to add wing air livery to their airplanes.
W I N G  A I R should be placed just above windows close to the front door.
W N G X X X is aircraft registration number, 727 for Boeing 727, 320 for Airbus 320 and so on.
Vertical Wings for the vertical stabilizer. Horizontal wings can be added to the side of the engines.</dc:description>
        <cc:license
           rdf:resource="http://creativecommons.org/licenses/by/4.0/" />
      </cc:Work>
      <cc:License
         rdf:about="http://creativecommons.org/licenses/by/4.0/">
        <cc:permits
           rdf:resource="http://creativecommons.org/ns#Reproduction" />
        <cc:permits
           rdf:resource="http://creativecommons.org/ns#Distribution" />
        <cc:requires
           rdf:resource="http://creativecommons.org/ns#Notice" />
        <cc:requires
           rdf:resource="http://creativecommons.org/ns#Attribution" />
        <cc:permits
           rdf:resource="http://creativecommons.org/ns#DerivativeWorks" />
      </cc:License>
    </rdf:RDF>
  </metadata>
  <g
     inkscape:label="Layer 1"
     inkscape:groupmode="layer"
     id="layer1"
     transform="translate(0,297)">
    <g
       transform="matrix(0.05943443,-2.2562687e-4,-0.01488596,0.06933694,608.90515,27.570358)"
       id="g2801"
       style="display:inline;opacity:1;fill:#2e3436;fill-opacity:1;fill-rule:nonzero;stroke:none;image-rendering:optimizeQuality">
      <path
         transform="matrix(33.655903,0,0,33.655903,5514.0445,-6765.3048)"
         inkscape:connector-curvature="0"
         id="path2743"
         d="m -76.366655,214.61111 c 0.0468,-0.003 0.0889,-0.003 0.12814,0 0.52419,0.0425 0.37359,0.67322 -0.35707,2.02333 -2.86135,5.28703 -11.29797,7.34277 -27.383575,6.67424 -3.26839,-0.13584 -7.10284,-0.27879 -8.53278,-0.32959 l -2.60927,-0.10071 2.55435,-0.37537 c 1.39794,-0.21288 2.42344,-0.50303 2.28883,-0.63172 -0.43046,-0.41145 0.98781,-0.61079 6.69253,-0.97046 3.06577,-0.1933 6.573435,-0.52639 7.800315,-0.72327 6.18109,-0.99195 13.75719,-3.12986 17.85295,-5.03544 0.71963,-0.33483 1.23786,-0.50963 1.56558,-0.53101 z"
         style="opacity:1;fill:#2e3436;fill-opacity:1;fill-rule:nonzero;stroke:none;stroke-width:0.31205788" />
      <path
         transform="matrix(33.655903,0,0,33.655903,5514.0445,-6765.3048)"
         inkscape:connector-curvature="0"
         id="path2745"
         d="m -80.010505,221.12055 c -2.7e-4,0.0448 -0.24789,0.56781 -0.56762,1.17189 -1.15512,2.18217 -4.35522,3.9962 -8.15743,4.64175 -1.93829,0.3291 -15.284445,0.10815 -22.750985,-0.37537 -3.29583,-0.21344 -4.32501,-0.40366 -4.93475,-0.93384 -0.69929,-0.60802 -0.72492,-0.72427 -0.19223,-1.22681 0.50913,-0.48029 2.2569,-0.54154 13.29354,-0.5127 13.785985,0.036 16.385095,-0.20118 21.020645,-1.9684 1.26521,-0.48233 2.28909,-0.84134 2.28883,-0.79652 z"
         style="opacity:1;fill:#2e3436;fill-opacity:1;fill-rule:nonzero;stroke:none;stroke-width:0.31205788" />
      <path
         transform="matrix(33.655903,0,0,33.655903,5514.0445,-6765.3048)"
         inkscape:connector-curvature="0"
         id="path2747"
         d="m -116.14661,223.00651 c 0.15976,0.005 -0.003,0.14115 -0.4395,0.47608 -0.80552,0.61784 -3.00603,0.73442 -3.35999,0.1831 -0.13407,-0.20891 0.28322,-0.36556 1.00706,-0.3662 0.67615,-5.9e-4 1.64024,-0.0755 2.15153,-0.18311 0.3365,-0.0708 0.54506,-0.11267 0.6409,-0.10987 z"
         style="opacity:1;fill:#2e3436;fill-opacity:1;fill-rule:nonzero;stroke:none;stroke-width:0.31205788" />
      <path
         transform="matrix(33.655903,0,0,33.655903,5514.0445,-6765.3048)"
         inkscape:connector-curvature="0"
         id="path2749"
         d="m -125.92453,223.7481 c 0.46528,-0.008 0.95545,-0.005 1.44653,0 3.28682,0.0353 3.52867,0.0879 3.20438,0.65918 -0.6225,1.09683 -4.34139,1.33382 -6.71087,0.42115 -1.31951,-0.50826 -1.44352,-0.65037 -0.81486,-0.86976 0.30429,-0.10617 1.47904,-0.1858 2.87482,-0.21057 z"
         style="opacity:1;fill:#2e3436;fill-opacity:1;fill-rule:nonzero;stroke:none;stroke-width:0.31205788" />
      <path
         transform="matrix(33.655903,0,0,33.655903,5514.0445,-6765.3048)"
         inkscape:connector-curvature="0"
         id="path2751"
         d="m -132.7452,224.0502 c 0.0794,-0.004 0.16131,-0.002 0.24715,0 1.48799,0.0305 3.8917,0.96997 5.64887,2.32545 0.0958,0.0739 -0.0739,0.29429 -0.3754,0.48524 -0.98983,0.62678 -5.93523,0.16938 -8.43206,-0.77821 -1.27451,-0.4837 -2.30787,-0.9882 -2.30714,-1.13526 0,-0.24705 0.44237,-0.3189 2.97545,-0.4303 0.51092,-0.0225 1.23973,-0.16945 1.62967,-0.33874 0.16986,-0.0738 0.3752,-0.11527 0.61346,-0.12818 z"
         style="opacity:1;fill:#2e3436;fill-opacity:1;fill-rule:nonzero;stroke:none;stroke-width:0.31205788" />
      <path
         transform="matrix(33.655903,0,0,33.655903,5514.0445,-6765.3048)"
         inkscape:connector-curvature="0"
         id="path2753"
         d="m -120.14749,224.79167 c 0.0767,-0.003 0.15535,-0.004 0.23805,0 0.6617,0.03 1.49428,0.2657 2.10572,0.65918 l 1.18101,0.75074 -2.02334,-0.18311 -2.05077,-0.17395 1.84935,0.44861 c 1.16606,0.27783 1.65106,0.52514 1.30005,0.66834 -0.95445,0.38941 -7.72352,0.0867 -8.194,-0.36622 -0.33293,-0.32051 0.16933,-0.48494 2.18816,-0.66833 1.62909,-0.14801 2.60092,-0.37601 2.55432,-0.62257 -0.061,-0.32278 0.31435,-0.49434 0.85145,-0.51269 z"
         style="opacity:1;fill:#2e3436;fill-opacity:1;fill-rule:nonzero;stroke:none;stroke-width:0.31205788" />
      <path
         transform="matrix(33.655903,0,0,33.655903,5514.0445,-6765.3048)"
         inkscape:connector-curvature="0"
         id="path2755"
         d="m -139.99624,225.4416 c 1.57926,0.004 5.81197,1.64774 5.95096,2.58181 0.0881,0.59259 -0.12843,0.63925 -2.4079,0.43031 -1.37316,-0.12587 -3.62726,-0.5681 -5.0171,-0.98878 -2.62304,-0.79398 -2.75422,-1.3789 -0.31128,-1.38246 0.66404,-8.7e-4 1.20752,-0.16231 1.20849,-0.35705 0,-0.20388 0.21233,-0.28471 0.57683,-0.28383 z"
         style="opacity:1;fill:#2e3436;fill-opacity:1;fill-rule:nonzero;stroke:none;stroke-width:0.31205788" />
      <path
         transform="matrix(33.655903,0,0,33.655903,5514.0445,-6765.3048)"
         inkscape:connector-curvature="0"
         id="path2757"
         d="m -84.478335,226.29305 c 0.0541,-0.01 0.0962,-0.001 0.12822,0.009 0.12762,0.0428 0.0842,0.25077 -0.0275,0.65003 -0.26034,0.93089 -2.48291,3.04725 -3.95513,3.772 -3.23418,1.59223 -6.73328,1.50393 -19.217015,-0.47608 -5.6142,-0.89045 -11.27041,-1.73304 -12.59773,-1.87684 l -2.42618,-0.25635 2.60929,-0.27466 c 1.431,-0.15179 3.67123,-0.21062 4.99878,-0.11902 l 2.43534,0.17395 -2.0508,-0.38453 c -3.30745,-0.6265 -1.40906,-0.76679 4.60515,-0.32959 13.949285,1.01406 21.949125,0.84246 24.682775,-0.54016 0.38951,-0.19701 0.65263,-0.31939 0.8148,-0.3479 z"
         style="opacity:1;fill:#2e3436;fill-opacity:1;fill-rule:nonzero;stroke:none;stroke-width:0.31205788" />
      <path
         transform="matrix(33.655903,0,0,33.655903,5514.0445,-6765.3048)"
         inkscape:connector-curvature="0"
         id="path2759"
         d="m -144.94015,227.12629 c 0.97447,0.003 4.41649,1.21333 5.246,1.84022 1.87457,1.41664 0.22327,1.7386 -4.13824,0.82398 -1.39095,-0.29169 -3.0134,-0.66348 -3.62548,-0.83313 l -1.12613,-0.31129 1.64799,-0.75989 c 0.90885,-0.41836 1.8103,-0.76046 1.99586,-0.75989 z"
         style="opacity:1;fill:#2e3436;fill-opacity:1;fill-rule:nonzero;stroke:none;stroke-width:0.31205788" />
      <path
         transform="matrix(33.655903,0,0,33.655903,5514.0445,-6765.3048)"
         inkscape:connector-curvature="0"
         id="path2761"
         d="m -126.10764,227.35517 c 1.38972,0.0716 3.82485,1.1143 3.62551,1.67543 -0.43916,1.23641 -5.46653,1.17049 -8.26723,-0.11902 l -1.84942,-0.8606 1.79447,-0.0915 c 0.98916,-0.0572 2.60189,0.15751 3.62551,0.48523 1.01917,0.32628 1.96529,0.49086 2.08743,0.37537 0.12215,-0.1155 -0.31209,-0.30445 -0.96133,-0.4303 -1.52827,-0.29627 -1.76475,-0.71767 -0.57677,-0.99793 0.14449,-0.0341 0.32333,-0.0469 0.52183,-0.0366 z"
         style="opacity:1;fill:#2e3436;fill-opacity:1;fill-rule:nonzero;stroke:none;stroke-width:0.31205788" />
      <path
         transform="matrix(33.655903,0,0,33.655903,5514.0445,-6765.3048)"
         inkscape:connector-curvature="0"
         id="path2763"
         d="m -137.81727,228.93874 c 0.0535,-8.7e-4 0.10769,0.003 0.17389,0.009 0.31807,0.0281 0.79993,0.13229 1.44657,0.31128 0.81833,0.22649 1.52037,0.22444 2.10572,-0.0275 1.29133,-0.55565 3.37853,-0.0422 4.73332,1.16273 l 1.19935,1.05287 -1.11697,-0.22889 c -0.61226,-0.12923 -1.67721,-0.47072 -2.37118,-0.74158 -0.69403,-0.27088 -1.33548,-0.42697 -1.41909,-0.34791 -0.0836,0.079 0.65766,0.42112 1.6388,0.76905 0.98111,0.34793 1.93077,0.789 2.12403,0.95216 0.50173,0.42357 -1.63632,0.34782 -3.95513,-0.12817 -2.36711,-0.48595 -4.57332,-1.51246 -4.87062,-2.26137 -0.13762,-0.34674 -0.0631,-0.51606 0.31131,-0.52186 z"
         style="opacity:1;fill:#2e3436;fill-opacity:1;fill-rule:nonzero;stroke:none;stroke-width:0.31205788" />
      <path
         transform="matrix(33.655903,0,0,33.655903,5514.0445,-6765.3048)"
         inkscape:connector-curvature="0"
         id="path2765"
         d="m -120.37639,229.04864 c 0.097,-8.7e-4 0.20979,0.002 0.32957,0.009 1.67709,0.10549 5.58971,0.70608 12.14,1.8036 6.38207,1.06934 9.835445,1.47537 12.881545,1.51063 l 4.15659,0.0549 -0.8057,0.81482 c -1.83425,1.85728 -4.82978,2.57552 -8.706735,2.07826 -1.26006,-0.16161 -4.92928,-1.01149 -8.14828,-1.89515 -3.21892,-0.88367 -7.74327,-1.96606 -10.06168,-2.38955 -2.62061,-0.47869 -4.0378,-0.86235 -3.73539,-1.0437 0.26755,-0.16045 0.81816,-0.29741 1.22683,-0.30213 0.62692,-0.007 0.66995,-0.0847 0.20142,-0.40283 -0.21151,-0.14362 -0.13322,-0.21772 0.2655,-0.22889 0.0747,-0.002 0.15941,-0.008 0.25633,-0.009 z"
         style="opacity:1;fill:#2e3436;fill-opacity:1;fill-rule:nonzero;stroke:none;stroke-width:0.31205788" />
      <path
         transform="matrix(33.655903,0,0,33.655903,5514.0445,-6765.3048)"
         inkscape:connector-curvature="0"
         id="path2767"
         d="m -148.75792,229.35084 c 0.0635,-0.002 0.12594,0.006 0.19226,0.009 0.31839,0.0149 0.66536,0.086 1.14439,0.21057 1.78016,0.46293 3.58818,1.7037 3.241,2.2339 -0.3166,0.48353 -4.83811,0.14948 -6.18898,-0.45776 -1.30971,-0.58873 -1.27103,-0.80234 0.21058,-1.55641 0.55831,-0.28417 0.95615,-0.42576 1.40075,-0.43945 z"
         style="opacity:1;fill:#2e3436;fill-opacity:1;fill-rule:nonzero;stroke:none;stroke-width:0.31205788" />
      <path
         transform="matrix(33.655903,0,0,33.655903,5514.0445,-6765.3048)"
         inkscape:connector-curvature="0"
         id="path2769"
         d="m -138.8793,230.68771 c 0.61708,0.009 1.60963,0.34959 2.54519,0.92468 1.14605,0.70451 1.27621,0.86865 0.55843,0.71412 -0.51024,-0.10984 -1.3483,-0.30442 -1.85851,-0.41198 -0.51024,-0.10759 -0.19034,0.11414 0.71415,0.48523 1.07447,0.44085 1.45701,0.74067 1.10776,0.87891 -0.52388,0.20733 -4.05764,0.0222 -5.92352,-0.32044 -0.61989,-0.11384 -1.09459,-0.53639 -1.36412,-1.22682 -0.49167,-1.2593 -0.26488,-1.30861 2.27048,-0.47607 0.96531,0.31697 1.84265,0.46679 1.96842,0.34791 0.12577,-0.11891 0.037,-0.20986 -0.20139,-0.21058 -0.23834,-5.8e-4 -0.42213,-0.14401 -0.42116,-0.33875 0,-0.24427 0.23401,-0.37142 0.60427,-0.36621 z"
         style="opacity:1;fill:#2e3436;fill-opacity:1;fill-rule:nonzero;stroke:none;stroke-width:0.31205788" />
      <path
         transform="matrix(33.655903,0,0,33.655903,5514.0445,-6765.3048)"
         inkscape:connector-curvature="0"
         id="path2771"
         d="m -127.86545,230.72421 c 0.019,-0.004 0.0453,-5.8e-4 0.0732,0 0.13437,0.003 0.3697,0.0652 0.74157,0.15564 0.6122,0.14888 2.35485,0.49515 3.87271,0.77821 1.51783,0.28305 4.26284,1.00121 6.07914,1.60218 1.81629,0.60096 3.36188,1.03695 3.45161,0.95216 0.2195,-0.20761 -4.83478,-1.92432 -7.52573,-2.55434 -2.88818,-0.67622 -1.04649,-0.69581 2.55433,-0.0275 4.05348,0.75235 5.90514,1.19695 10.1258,2.42617 2.04015,0.59415 5.14184,1.36302 6.86653,1.70289 l 3.121945,0.60425 -1.00706,0.62256 c -3.519755,2.18064 -6.662135,2.07544 -12.524515,-0.45776 -4.90479,-2.11942 -10.12653,-3.82581 -13.97105,-4.55936 -0.64932,-0.12389 -1.39832,-0.47464 -1.66627,-0.78736 -0.23735,-0.27704 -0.325,-0.42835 -0.19226,-0.45777 z"
         style="opacity:1;fill:#2e3436;fill-opacity:1;fill-rule:nonzero;stroke:none;stroke-width:0.31205788" />
      <path
         transform="matrix(33.655903,0,0,33.655903,5514.0445,-6765.3048)"
         inkscape:connector-curvature="0"
         id="path2773"
         d="m -152.42006,231.28271 c 0.0656,-0.009 0.13695,-0.007 0.21058,0 0.29467,0.0267 0.67092,0.16713 1.26346,0.45777 1.91725,0.94051 2.22285,1.53195 0.63168,1.22681 -0.92558,-0.1775 -1.11527,-0.13744 -0.70494,0.13733 0.30543,0.20452 0.90066,0.38492 1.30921,0.40284 0.7428,0.0326 0.73537,0.0458 -0.009,0.3479 -1.06853,0.43352 -2.66345,0.4033 -4.31216,-0.0732 -1.13198,-0.3272 -1.3533,-0.51467 -1.02544,-0.88807 0.27652,-0.31489 0.92676,-0.41425 1.95011,-0.29297 1.39075,0.16481 1.36986,0.0472 -0.0915,-0.40284 -0.40609,-0.12506 -0.3642,-0.25323 0.18311,-0.63172 0.22714,-0.1571 0.39834,-0.2566 0.59508,-0.28382 z"
         style="opacity:1;fill:#2e3436;fill-opacity:1;fill-rule:nonzero;stroke:none;stroke-width:0.31205788" />
      <path
         transform="matrix(33.655903,0,0,33.655903,5514.0445,-6765.3048)"
         inkscape:connector-curvature="0"
         id="path2775"
         d="m -134.10022,232.23467 c 1.51116,-0.10244 16.8348,6.64108 16.8458,7.4616 0.005,0.38349 -4.04474,0.3078 -5.52068,-0.10071 -1.47081,-0.40713 -11.49931,-5.76353 -11.51742,-6.15238 -0.026,-0.55968 1.10296,-0.19531 4.47699,1.42823 4.19789,2.01995 4.34814,2.09061 3.86356,1.62049 -0.44852,-0.43511 -5.8771,-3.13616 -7.37006,-3.66213 -0.58915,-0.20756 -0.9876,-0.45573 -0.87892,-0.55848 0.019,-0.018 0.052,-0.0333 0.10073,-0.0366 z"
         style="opacity:1;fill:#2e3436;fill-opacity:1;fill-rule:nonzero;stroke:none;stroke-width:0.31205788" />
      <path
         transform="matrix(33.655903,0,0,33.655903,5514.0445,-6765.3048)"
         inkscape:connector-curvature="0"
         id="path2777"
         d="m -127.39854,232.42697 c 0.0365,-0.006 0.11264,0.01 0.20143,0.0183 1.24303,0.12277 6.96972,1.59128 9.60394,2.49941 1.85155,0.6383 3.42253,1.27783 8.03839,3.29591 0.85526,0.37391 1.84789,0.69473 2.20645,0.69581 1.28449,0.004 -0.10839,0.73319 -1.95008,1.0254 -2.24451,0.3561 -4.64137,0.12184 -6.82991,-0.70496 -0.91766,-0.34669 -2.74059,-1.24396 -4.06496,-1.9684 -1.32433,-0.72445 -3.76163,-1.90836 -5.39247,-2.63673 -5.26636,-2.35215 -5.03568,-2.20029 -3.24101,-2.02333 0.86798,0.0856 1.51382,0.0154 1.40991,-0.14649 -0.0138,-0.0213 -0.0182,-0.0487 0.0184,-0.0549 z"
         style="opacity:1;fill:#2e3436;fill-opacity:1;fill-rule:nonzero;stroke:none;stroke-width:0.31205788" />
      <path
         transform="matrix(33.655903,0,0,33.655903,5514.0445,-6765.3048)"
         inkscape:connector-curvature="0"
         id="path2779"
         d="m -145.95639,232.77492 c 0.11313,-0.003 0.22172,-0.003 0.33875,0 1.56019,0.0437 3.40644,0.64848 4.22977,1.60218 0.40387,0.46788 0.34241,0.59727 -0.40284,0.87892 -1.35795,0.51316 -3.49304,0.4223 -5.13617,-0.21058 -1.6398,-0.63162 -1.76946,-0.87813 -0.89721,-1.70289 0.39053,-0.36926 1.07575,-0.54655 1.8677,-0.56763 z"
         style="opacity:1;fill:#2e3436;fill-opacity:1;fill-rule:nonzero;stroke:none;stroke-width:0.31205788" />
      <path
         transform="matrix(33.655903,0,0,33.655903,5514.0445,-6765.3048)"
         inkscape:connector-curvature="0"
         id="path2781"
         d="m -155.99065,233.86441 c 0.056,-1.1e-4 0.11582,0.004 0.17398,0.009 0.46499,0.0446 0.99565,0.27557 1.63877,0.6958 l 1.09863,0.70496 -1.48316,-0.21057 c -1.09995,-0.1664 -1.33607,-0.13271 -0.92465,0.14648 0.3054,0.20727 0.97248,0.39164 1.48313,0.412 0.91055,0.0363 0.91219,0.0573 -0.18311,0.53101 -1.18183,0.5111 -4.01519,0.61188 -5.11779,0.19225 -0.55949,-0.2129 -0.47017,-0.33911 0.56758,-0.91553 0.67059,-0.37244 1.44077,-0.89086 1.71206,-1.14441 0.30452,-0.28459 0.64286,-0.42038 1.03456,-0.42115 z"
         style="opacity:1;fill:#2e3436;fill-opacity:1;fill-rule:nonzero;stroke:none;stroke-width:0.31205788" />
      <path
         transform="matrix(33.655903,0,0,33.655903,5514.0445,-6765.3048)"
         inkscape:connector-curvature="0"
         id="path2783"
         d="m -135.87638,233.89191 c 1.27726,0.007 11.88472,5.87739 11.13289,6.16154 -1.00601,0.38021 -2.85779,0.21127 -4.79736,-0.43946 -1.10282,-0.36999 -3.1999,-1.32768 -4.66923,-2.13319 -1.46938,-0.8055 -3.64493,-1.89811 -4.82489,-2.42616 -1.97111,-0.88213 -2.0547,-0.97711 -1.09866,-1.09865 0.63566,-0.0808 1.99393,0.29786 3.48818,0.97047 1.34546,0.60559 2.50248,1.03632 2.58183,0.96131 0.0793,-0.075 -0.44199,-0.40348 -1.16273,-0.73242 -1.3978,-0.638 -1.72072,-1.26914 -0.65003,-1.26344 z"
         style="opacity:1;fill:#2e3436;fill-opacity:1;fill-rule:nonzero;stroke:none;stroke-width:0.31205788" />
      <path
         transform="matrix(33.655903,0,0,33.655903,5514.0445,-6765.3048)"
         inkscape:connector-curvature="0"
         id="path2785"
         d="m -150.68059,234.70678 c 1.92261,0.0179 2.35325,0.152 3.34173,1.06201 1.15779,1.06584 1.49153,1.84734 0.65919,1.51979 -0.25488,-0.1003 -0.79136,-0.29829 -1.19936,-0.43029 -0.70394,-0.22778 -0.70292,-0.21042 -0.0458,0.19226 0.56039,0.34334 0.58702,0.48499 0.17396,0.73242 -0.76547,0.45849 -2.19194,0.3656 -4.39455,-0.2655 l -1.96839,-0.55848 1.01621,-0.63171 c 0.56212,-0.34866 1.38186,-0.56298 1.82192,-0.48524 0.47236,0.0834 0.31748,-0.0843 -0.39369,-0.40283 -0.66255,-0.29675 -1.19962,-0.58515 -1.19933,-0.64087 2.6e-4,-0.0557 0.97567,-0.10285 2.18807,-0.0916 z"
         style="opacity:1;fill:#2e3436;fill-opacity:1;fill-rule:nonzero;stroke:none;stroke-width:0.31205788" />
      <path
         transform="matrix(33.655903,0,0,33.655903,5514.0445,-6765.3048)"
         inkscape:connector-curvature="0"
         id="path2787"
         d="m -140.25261,235.5399 c 0.0747,0.005 0.15072,0.0189 0.2289,0.0275 0.9379,0.10279 2.4102,0.76178 4.97131,2.14235 1.32486,0.71418 2.9534,1.56114 3.64382,1.88599 1.36734,0.64334 1.19424,0.93129 -0.85142,1.40993 -1.93823,0.45348 -3.5665,0.0144 -8.30389,-2.27968 l -4.56855,-2.21559 1.42825,-0.22888 c 1.01276,-0.16894 1.79567,-0.0486 2.79237,0.41198 0.76441,0.35325 1.40007,0.52358 1.40078,0.38453 0,-0.13906 -0.45569,-0.46267 -1.01625,-0.71412 -0.95112,-0.42662 -0.97839,-0.47513 -0.28381,-0.72326 0.10845,-0.0387 0.21819,-0.0784 0.34788,-0.0916 0.0649,-0.007 0.13595,-0.0138 0.21061,-0.009 z"
         style="opacity:1;fill:#2e3436;fill-opacity:1;fill-rule:nonzero;stroke:none;stroke-width:0.31205788" />
      <path
         transform="matrix(33.655903,0,0,33.655903,5514.0445,-6765.3048)"
         inkscape:connector-curvature="0"
         id="path2789"
         d="m -160.8979,236.64768 c 0.29317,8.7e-4 0.99155,0.18815 1.56555,0.41198 l 1.04374,0.40284 -0.9247,0.28381 c -0.7995,0.25509 -0.75456,0.29293 0.2838,0.15565 0.87132,-0.11521 1.20123,-0.0293 1.19936,0.32958 -0.004,0.83567 -2.50362,1.10647 -4.33963,0.46692 -1.90535,-0.66369 -1.52059,-1.18366 0.80566,-1.07117 0.40855,0.0198 0.53871,-0.0536 0.28384,-0.15564 -0.6337,-0.2537 -0.57332,-0.82598 0.0824,-0.82397 z"
         style="opacity:1;fill:#2e3436;fill-opacity:1;fill-rule:nonzero;stroke:none;stroke-width:0.31205788" />
      <path
         transform="matrix(33.655903,0,0,33.655903,5514.0445,-6765.3048)"
         inkscape:connector-curvature="0"
         id="path2791"
         d="m -145.19651,237.30687 c 0.22567,0.0149 0.56618,0.15293 1.14441,0.41198 2.91443,1.30564 7.48995,3.61494 7.48904,3.79031 -0.004,0.74645 -3.51577,1.08185 -5.53893,0.52185 -0.69061,-0.19115 -2.44423,-1.02989 -3.891,-1.86768 -2.60499,-1.50845 -2.63056,-1.54966 -1.4191,-1.65711 0.80857,-0.0717 1.77493,0.21076 2.84732,0.81482 2.24357,1.2637 2.63076,1.14831 0.48523,-0.14649 -1.1414,-0.6888 -1.67291,-1.22608 -1.5381,-1.5564 0.0878,-0.21498 0.19551,-0.32623 0.42113,-0.31128 z"
         style="opacity:1;fill:#2e3436;fill-opacity:1;fill-rule:nonzero;stroke:none;stroke-width:0.31205788" />
      <path
         transform="matrix(33.655903,0,0,33.655903,5514.0445,-6765.3048)"
         inkscape:connector-curvature="0"
         id="path2793"
         d="m -156.64984,237.46251 c 0.13276,-5.9e-4 0.2906,0.003 0.46695,0.009 0.23516,0.009 0.50811,0.0325 0.80564,0.0549 1.96842,0.14871 4.29636,1.06676 3.82696,1.51063 -0.10526,0.0995 -1.12964,-0.0868 -2.28883,-0.41199 -1.15919,-0.3252 -2.18754,-0.5078 -2.28886,-0.41199 -0.10131,0.0958 0.54041,0.33663 1.42825,0.55848 2.72438,0.68073 2.90422,0.77272 2.90223,1.16272 -0.003,0.49605 -5.10221,0.14958 -5.658,-0.38452 -0.29355,-0.2821 -0.23001,-0.46888 0.21971,-0.63172 0.72966,-0.26417 0.81816,-1.05388 0.15569,-1.35498 -0.14338,-0.0652 0.032,-0.0987 0.43026,-0.10072 z"
         style="opacity:1;fill:#2e3436;fill-opacity:1;fill-rule:nonzero;stroke:none;stroke-width:0.31205788" />
      <path
         transform="matrix(33.655903,0,0,33.655903,5514.0445,-6765.3048)"
         inkscape:connector-curvature="0"
         id="path2795"
         d="m -150.34178,238.65268 c 0.44506,0.0169 1.45938,0.56885 3.74449,1.86769 1.52801,0.86845 3.35431,1.76438 4.06498,2.00502 l 1.30924,0.44861 -1.10785,0.58594 c -1.56841,0.82996 -3.83842,0.48536 -6.76575,-1.03455 -3.36215,-1.7457 -3.28515,-1.68655 -2.39868,-1.99587 0.5624,-0.19625 1.27372,-0.008 2.48106,0.64088 0.93588,0.50281 1.77469,0.83867 1.8677,0.75074 0.093,-0.0879 -0.66469,-0.60164 -1.68459,-1.13526 -1.22393,-0.64039 -1.83329,-1.19329 -1.83107,-1.63881 0.003,-0.3179 0.0535,-0.50455 0.32047,-0.49439 z"
         style="opacity:1;fill:#2e3436;fill-opacity:1;fill-rule:nonzero;stroke:none;stroke-width:0.31205788" />
      <path
         transform="matrix(33.655903,0,0,33.655903,5514.0445,-6765.3048)"
         inkscape:connector-curvature="0"
         id="path2797"
         d="m -160.85211,239.48582 c 0.0695,-0.0132 0.1786,0.002 0.3204,0.0183 0.18908,0.0217 0.44612,0.0752 0.78735,0.13733 1.69807,0.30908 3.49073,1.15078 3.48821,1.63881 0,0.19916 -0.44757,0.2502 -1.0254,0.12817 -0.78583,-0.16597 -0.89448,-0.11791 -0.46694,0.17395 0.42654,0.29111 0.17623,0.37926 -1.10776,0.37537 -0.91944,-0.003 -1.88897,-0.14581 -2.16069,-0.31128 -0.39571,-0.24107 -0.38439,-0.33707 0.1007,-0.5127 0.49576,-0.17948 0.52926,-0.37481 0.18311,-0.99793 -0.2289,-0.41214 -0.32769,-0.61051 -0.11898,-0.65004 z"
         style="opacity:1;fill:#2e3436;fill-opacity:1;fill-rule:nonzero;stroke:none;stroke-width:0.31205788" />
      <path
         transform="matrix(33.655903,0,0,33.655903,5514.0445,-6765.3048)"
         inkscape:connector-curvature="0"
         id="path2799"
         d="m -155.60615,240.6028 c 0.0566,-2e-4 0.12129,0.004 0.1923,0.009 0.85247,0.0681 2.66803,0.58592 3.55225,1.09864 0.67536,0.39159 2.32355,1.24075 3.68045,1.886 l 2.46275,1.18104 -1.28171,0.35706 c -1.79163,0.49898 -3.23925,0.21773 -6.48201,-1.26344 -2.20047,-1.00514 -2.70267,-1.38159 -2.38037,-1.74867 0.38395,-0.43719 1.15656,-0.34243 2.00502,0.21973 0.54129,0.3586 1.68368,0.70791 1.68459,0.52185 0,-0.088 -0.83945,-0.56548 -1.85851,-1.06202 -1.01905,-0.49655 -1.84075,-0.99572 -1.84025,-1.09864 0,-0.0727 0.0957,-0.10009 0.26549,-0.10071 z"
         style="opacity:1;fill:#2e3436;fill-opacity:1;fill-rule:nonzero;stroke:none;stroke-width:0.31205788" />
    </g>
    <g
       style="display:inline;opacity:1;fill:#2e3436;fill-opacity:1;fill-rule:nonzero;stroke:none;image-rendering:optimizeQuality"
       id="g2861"
       transform="matrix(-0.05943443,-2.2562687e-4,0.01488596,0.06933694,760.38274,157.72246)">
      <path
         style="opacity:1;fill:#2e3436;fill-opacity:1;fill-rule:nonzero;stroke:none;stroke-width:0.31205788"
         d="m -76.366655,214.61111 c 0.0468,-0.003 0.0889,-0.003 0.12814,0 0.52419,0.0425 0.37359,0.67322 -0.35707,2.02333 -2.86135,5.28703 -11.29797,7.34277 -27.383575,6.67424 -3.26839,-0.13584 -7.10284,-0.27879 -8.53278,-0.32959 l -2.60927,-0.10071 2.55435,-0.37537 c 1.39794,-0.21288 2.42344,-0.50303 2.28883,-0.63172 -0.43046,-0.41145 0.98781,-0.61079 6.69253,-0.97046 3.06577,-0.1933 6.573435,-0.52639 7.800315,-0.72327 6.18109,-0.99195 13.75719,-3.12986 17.85295,-5.03544 0.71963,-0.33483 1.23786,-0.50963 1.56558,-0.53101 z"
         id="path2803"
         inkscape:connector-curvature="0"
         transform="matrix(33.655903,0,0,33.655903,5514.0445,-6765.3048)" />
      <path
         style="opacity:1;fill:#2e3436;fill-opacity:1;fill-rule:nonzero;stroke:none;stroke-width:0.31205788"
         d="m -80.010505,221.12055 c -2.7e-4,0.0448 -0.24789,0.56781 -0.56762,1.17189 -1.15512,2.18217 -4.35522,3.9962 -8.15743,4.64175 -1.93829,0.3291 -15.284445,0.10815 -22.750985,-0.37537 -3.29583,-0.21344 -4.32501,-0.40366 -4.93475,-0.93384 -0.69929,-0.60802 -0.72492,-0.72427 -0.19223,-1.22681 0.50913,-0.48029 2.2569,-0.54154 13.29354,-0.5127 13.785985,0.036 16.385095,-0.20118 21.020645,-1.9684 1.26521,-0.48233 2.28909,-0.84134 2.28883,-0.79652 z"
         id="path2805"
         inkscape:connector-curvature="0"
         transform="matrix(33.655903,0,0,33.655903,5514.0445,-6765.3048)" />
      <path
         style="opacity:1;fill:#2e3436;fill-opacity:1;fill-rule:nonzero;stroke:none;stroke-width:0.31205788"
         d="m -116.14661,223.00651 c 0.15976,0.005 -0.003,0.14115 -0.4395,0.47608 -0.80552,0.61784 -3.00603,0.73442 -3.35999,0.1831 -0.13407,-0.20891 0.28322,-0.36556 1.00706,-0.3662 0.67615,-5.9e-4 1.64024,-0.0755 2.15153,-0.18311 0.3365,-0.0708 0.54506,-0.11267 0.6409,-0.10987 z"
         id="path2807"
         inkscape:connector-curvature="0"
         transform="matrix(33.655903,0,0,33.655903,5514.0445,-6765.3048)" />
      <path
         style="opacity:1;fill:#2e3436;fill-opacity:1;fill-rule:nonzero;stroke:none;stroke-width:0.31205788"
         d="m -125.92453,223.7481 c 0.46528,-0.008 0.95545,-0.005 1.44653,0 3.28682,0.0353 3.52867,0.0879 3.20438,0.65918 -0.6225,1.09683 -4.34139,1.33382 -6.71087,0.42115 -1.31951,-0.50826 -1.44352,-0.65037 -0.81486,-0.86976 0.30429,-0.10617 1.47904,-0.1858 2.87482,-0.21057 z"
         id="path2809"
         inkscape:connector-curvature="0"
         transform="matrix(33.655903,0,0,33.655903,5514.0445,-6765.3048)" />
      <path
         style="opacity:1;fill:#2e3436;fill-opacity:1;fill-rule:nonzero;stroke:none;stroke-width:0.31205788"
         d="m -132.7452,224.0502 c 0.0794,-0.004 0.16131,-0.002 0.24715,0 1.48799,0.0305 3.8917,0.96997 5.64887,2.32545 0.0958,0.0739 -0.0739,0.29429 -0.3754,0.48524 -0.98983,0.62678 -5.93523,0.16938 -8.43206,-0.77821 -1.27451,-0.4837 -2.30787,-0.9882 -2.30714,-1.13526 0,-0.24705 0.44237,-0.3189 2.97545,-0.4303 0.51092,-0.0225 1.23973,-0.16945 1.62967,-0.33874 0.16986,-0.0738 0.3752,-0.11527 0.61346,-0.12818 z"
         id="path2811"
         inkscape:connector-curvature="0"
         transform="matrix(33.655903,0,0,33.655903,5514.0445,-6765.3048)" />
      <path
         style="opacity:1;fill:#2e3436;fill-opacity:1;fill-rule:nonzero;stroke:none;stroke-width:0.31205788"
         d="m -120.14749,224.79167 c 0.0767,-0.003 0.15535,-0.004 0.23805,0 0.6617,0.03 1.49428,0.2657 2.10572,0.65918 l 1.18101,0.75074 -2.02334,-0.18311 -2.05077,-0.17395 1.84935,0.44861 c 1.16606,0.27783 1.65106,0.52514 1.30005,0.66834 -0.95445,0.38941 -7.72352,0.0867 -8.194,-0.36622 -0.33293,-0.32051 0.16933,-0.48494 2.18816,-0.66833 1.62909,-0.14801 2.60092,-0.37601 2.55432,-0.62257 -0.061,-0.32278 0.31435,-0.49434 0.85145,-0.51269 z"
         id="path2813"
         inkscape:connector-curvature="0"
         transform="matrix(33.655903,0,0,33.655903,5514.0445,-6765.3048)" />
      <path
         style="opacity:1;fill:#2e3436;fill-opacity:1;fill-rule:nonzero;stroke:none;stroke-width:0.31205788"
         d="m -139.99624,225.4416 c 1.57926,0.004 5.81197,1.64774 5.95096,2.58181 0.0881,0.59259 -0.12843,0.63925 -2.4079,0.43031 -1.37316,-0.12587 -3.62726,-0.5681 -5.0171,-0.98878 -2.62304,-0.79398 -2.75422,-1.3789 -0.31128,-1.38246 0.66404,-8.7e-4 1.20752,-0.16231 1.20849,-0.35705 0,-0.20388 0.21233,-0.28471 0.57683,-0.28383 z"
         id="path2815"
         inkscape:connector-curvature="0"
         transform="matrix(33.655903,0,0,33.655903,5514.0445,-6765.3048)" />
      <path
         style="opacity:1;fill:#2e3436;fill-opacity:1;fill-rule:nonzero;stroke:none;stroke-width:0.31205788"
         d="m -84.478335,226.29305 c 0.0541,-0.01 0.0962,-0.001 0.12822,0.009 0.12762,0.0428 0.0842,0.25077 -0.0275,0.65003 -0.26034,0.93089 -2.48291,3.04725 -3.95513,3.772 -3.23418,1.59223 -6.73328,1.50393 -19.217015,-0.47608 -5.6142,-0.89045 -11.27041,-1.73304 -12.59773,-1.87684 l -2.42618,-0.25635 2.60929,-0.27466 c 1.431,-0.15179 3.67123,-0.21062 4.99878,-0.11902 l 2.43534,0.17395 -2.0508,-0.38453 c -3.30745,-0.6265 -1.40906,-0.76679 4.60515,-0.32959 13.949285,1.01406 21.949125,0.84246 24.682775,-0.54016 0.38951,-0.19701 0.65263,-0.31939 0.8148,-0.3479 z"
         id="path2817"
         inkscape:connector-curvature="0"
         transform="matrix(33.655903,0,0,33.655903,5514.0445,-6765.3048)" />
      <path
         style="opacity:1;fill:#2e3436;fill-opacity:1;fill-rule:nonzero;stroke:none;stroke-width:0.31205788"
         d="m -144.94015,227.12629 c 0.97447,0.003 4.41649,1.21333 5.246,1.84022 1.87457,1.41664 0.22327,1.7386 -4.13824,0.82398 -1.39095,-0.29169 -3.0134,-0.66348 -3.62548,-0.83313 l -1.12613,-0.31129 1.64799,-0.75989 c 0.90885,-0.41836 1.8103,-0.76046 1.99586,-0.75989 z"
         id="path2819"
         inkscape:connector-curvature="0"
         transform="matrix(33.655903,0,0,33.655903,5514.0445,-6765.3048)" />
      <path
         style="opacity:1;fill:#2e3436;fill-opacity:1;fill-rule:nonzero;stroke:none;stroke-width:0.31205788"
         d="m -126.10764,227.35517 c 1.38972,0.0716 3.82485,1.1143 3.62551,1.67543 -0.43916,1.23641 -5.46653,1.17049 -8.26723,-0.11902 l -1.84942,-0.8606 1.79447,-0.0915 c 0.98916,-0.0572 2.60189,0.15751 3.62551,0.48523 1.01917,0.32628 1.96529,0.49086 2.08743,0.37537 0.12215,-0.1155 -0.31209,-0.30445 -0.96133,-0.4303 -1.52827,-0.29627 -1.76475,-0.71767 -0.57677,-0.99793 0.14449,-0.0341 0.32333,-0.0469 0.52183,-0.0366 z"
         id="path2821"
         inkscape:connector-curvature="0"
         transform="matrix(33.655903,0,0,33.655903,5514.0445,-6765.3048)" />
      <path
         style="opacity:1;fill:#2e3436;fill-opacity:1;fill-rule:nonzero;stroke:none;stroke-width:0.31205788"
         d="m -137.81727,228.93874 c 0.0535,-8.7e-4 0.10769,0.003 0.17389,0.009 0.31807,0.0281 0.79993,0.13229 1.44657,0.31128 0.81833,0.22649 1.52037,0.22444 2.10572,-0.0275 1.29133,-0.55565 3.37853,-0.0422 4.73332,1.16273 l 1.19935,1.05287 -1.11697,-0.22889 c -0.61226,-0.12923 -1.67721,-0.47072 -2.37118,-0.74158 -0.69403,-0.27088 -1.33548,-0.42697 -1.41909,-0.34791 -0.0836,0.079 0.65766,0.42112 1.6388,0.76905 0.98111,0.34793 1.93077,0.789 2.12403,0.95216 0.50173,0.42357 -1.63632,0.34782 -3.95513,-0.12817 -2.36711,-0.48595 -4.57332,-1.51246 -4.87062,-2.26137 -0.13762,-0.34674 -0.0631,-0.51606 0.31131,-0.52186 z"
         id="path2823"
         inkscape:connector-curvature="0"
         transform="matrix(33.655903,0,0,33.655903,5514.0445,-6765.3048)" />
      <path
         style="opacity:1;fill:#2e3436;fill-opacity:1;fill-rule:nonzero;stroke:none;stroke-width:0.31205788"
         d="m -120.37639,229.04864 c 0.097,-8.7e-4 0.20979,0.002 0.32957,0.009 1.67709,0.10549 5.58971,0.70608 12.14,1.8036 6.38207,1.06934 9.835445,1.47537 12.881545,1.51063 l 4.15659,0.0549 -0.8057,0.81482 c -1.83425,1.85728 -4.82978,2.57552 -8.706735,2.07826 -1.26006,-0.16161 -4.92928,-1.01149 -8.14828,-1.89515 -3.21892,-0.88367 -7.74327,-1.96606 -10.06168,-2.38955 -2.62061,-0.47869 -4.0378,-0.86235 -3.73539,-1.0437 0.26755,-0.16045 0.81816,-0.29741 1.22683,-0.30213 0.62692,-0.007 0.66995,-0.0847 0.20142,-0.40283 -0.21151,-0.14362 -0.13322,-0.21772 0.2655,-0.22889 0.0747,-0.002 0.15941,-0.008 0.25633,-0.009 z"
         id="path2825"
         inkscape:connector-curvature="0"
         transform="matrix(33.655903,0,0,33.655903,5514.0445,-6765.3048)" />
      <path
         style="opacity:1;fill:#2e3436;fill-opacity:1;fill-rule:nonzero;stroke:none;stroke-width:0.31205788"
         d="m -148.75792,229.35084 c 0.0635,-0.002 0.12594,0.006 0.19226,0.009 0.31839,0.0149 0.66536,0.086 1.14439,0.21057 1.78016,0.46293 3.58818,1.7037 3.241,2.2339 -0.3166,0.48353 -4.83811,0.14948 -6.18898,-0.45776 -1.30971,-0.58873 -1.27103,-0.80234 0.21058,-1.55641 0.55831,-0.28417 0.95615,-0.42576 1.40075,-0.43945 z"
         id="path2827"
         inkscape:connector-curvature="0"
         transform="matrix(33.655903,0,0,33.655903,5514.0445,-6765.3048)" />
      <path
         style="opacity:1;fill:#2e3436;fill-opacity:1;fill-rule:nonzero;stroke:none;stroke-width:0.31205788"
         d="m -138.8793,230.68771 c 0.61708,0.009 1.60963,0.34959 2.54519,0.92468 1.14605,0.70451 1.27621,0.86865 0.55843,0.71412 -0.51024,-0.10984 -1.3483,-0.30442 -1.85851,-0.41198 -0.51024,-0.10759 -0.19034,0.11414 0.71415,0.48523 1.07447,0.44085 1.45701,0.74067 1.10776,0.87891 -0.52388,0.20733 -4.05764,0.0222 -5.92352,-0.32044 -0.61989,-0.11384 -1.09459,-0.53639 -1.36412,-1.22682 -0.49167,-1.2593 -0.26488,-1.30861 2.27048,-0.47607 0.96531,0.31697 1.84265,0.46679 1.96842,0.34791 0.12577,-0.11891 0.037,-0.20986 -0.20139,-0.21058 -0.23834,-5.8e-4 -0.42213,-0.14401 -0.42116,-0.33875 0,-0.24427 0.23401,-0.37142 0.60427,-0.36621 z"
         id="path2829"
         inkscape:connector-curvature="0"
         transform="matrix(33.655903,0,0,33.655903,5514.0445,-6765.3048)" />
      <path
         style="opacity:1;fill:#2e3436;fill-opacity:1;fill-rule:nonzero;stroke:none;stroke-width:0.31205788"
         d="m -127.86545,230.72421 c 0.019,-0.004 0.0453,-5.8e-4 0.0732,0 0.13437,0.003 0.3697,0.0652 0.74157,0.15564 0.6122,0.14888 2.35485,0.49515 3.87271,0.77821 1.51783,0.28305 4.26284,1.00121 6.07914,1.60218 1.81629,0.60096 3.36188,1.03695 3.45161,0.95216 0.2195,-0.20761 -4.83478,-1.92432 -7.52573,-2.55434 -2.88818,-0.67622 -1.04649,-0.69581 2.55433,-0.0275 4.05348,0.75235 5.90514,1.19695 10.1258,2.42617 2.04015,0.59415 5.14184,1.36302 6.86653,1.70289 l 3.121945,0.60425 -1.00706,0.62256 c -3.519755,2.18064 -6.662135,2.07544 -12.524515,-0.45776 -4.90479,-2.11942 -10.12653,-3.82581 -13.97105,-4.55936 -0.64932,-0.12389 -1.39832,-0.47464 -1.66627,-0.78736 -0.23735,-0.27704 -0.325,-0.42835 -0.19226,-0.45777 z"
         id="path2831"
         inkscape:connector-curvature="0"
         transform="matrix(33.655903,0,0,33.655903,5514.0445,-6765.3048)" />
      <path
         style="opacity:1;fill:#2e3436;fill-opacity:1;fill-rule:nonzero;stroke:none;stroke-width:0.31205788"
         d="m -152.42006,231.28271 c 0.0656,-0.009 0.13695,-0.007 0.21058,0 0.29467,0.0267 0.67092,0.16713 1.26346,0.45777 1.91725,0.94051 2.22285,1.53195 0.63168,1.22681 -0.92558,-0.1775 -1.11527,-0.13744 -0.70494,0.13733 0.30543,0.20452 0.90066,0.38492 1.30921,0.40284 0.7428,0.0326 0.73537,0.0458 -0.009,0.3479 -1.06853,0.43352 -2.66345,0.4033 -4.31216,-0.0732 -1.13198,-0.3272 -1.3533,-0.51467 -1.02544,-0.88807 0.27652,-0.31489 0.92676,-0.41425 1.95011,-0.29297 1.39075,0.16481 1.36986,0.0472 -0.0915,-0.40284 -0.40609,-0.12506 -0.3642,-0.25323 0.18311,-0.63172 0.22714,-0.1571 0.39834,-0.2566 0.59508,-0.28382 z"
         id="path2833"
         inkscape:connector-curvature="0"
         transform="matrix(33.655903,0,0,33.655903,5514.0445,-6765.3048)" />
      <path
         style="opacity:1;fill:#2e3436;fill-opacity:1;fill-rule:nonzero;stroke:none;stroke-width:0.31205788"
         d="m -134.10022,232.23467 c 1.51116,-0.10244 16.8348,6.64108 16.8458,7.4616 0.005,0.38349 -4.04474,0.3078 -5.52068,-0.10071 -1.47081,-0.40713 -11.49931,-5.76353 -11.51742,-6.15238 -0.026,-0.55968 1.10296,-0.19531 4.47699,1.42823 4.19789,2.01995 4.34814,2.09061 3.86356,1.62049 -0.44852,-0.43511 -5.8771,-3.13616 -7.37006,-3.66213 -0.58915,-0.20756 -0.9876,-0.45573 -0.87892,-0.55848 0.019,-0.018 0.052,-0.0333 0.10073,-0.0366 z"
         id="path2835"
         inkscape:connector-curvature="0"
         transform="matrix(33.655903,0,0,33.655903,5514.0445,-6765.3048)" />
      <path
         style="opacity:1;fill:#2e3436;fill-opacity:1;fill-rule:nonzero;stroke:none;stroke-width:0.31205788"
         d="m -127.39854,232.42697 c 0.0365,-0.006 0.11264,0.01 0.20143,0.0183 1.24303,0.12277 6.96972,1.59128 9.60394,2.49941 1.85155,0.6383 3.42253,1.27783 8.03839,3.29591 0.85526,0.37391 1.84789,0.69473 2.20645,0.69581 1.28449,0.004 -0.10839,0.73319 -1.95008,1.0254 -2.24451,0.3561 -4.64137,0.12184 -6.82991,-0.70496 -0.91766,-0.34669 -2.74059,-1.24396 -4.06496,-1.9684 -1.32433,-0.72445 -3.76163,-1.90836 -5.39247,-2.63673 -5.26636,-2.35215 -5.03568,-2.20029 -3.24101,-2.02333 0.86798,0.0856 1.51382,0.0154 1.40991,-0.14649 -0.0138,-0.0213 -0.0182,-0.0487 0.0184,-0.0549 z"
         id="path2837"
         inkscape:connector-curvature="0"
         transform="matrix(33.655903,0,0,33.655903,5514.0445,-6765.3048)" />
      <path
         style="opacity:1;fill:#2e3436;fill-opacity:1;fill-rule:nonzero;stroke:none;stroke-width:0.31205788"
         d="m -145.95639,232.77492 c 0.11313,-0.003 0.22172,-0.003 0.33875,0 1.56019,0.0437 3.40644,0.64848 4.22977,1.60218 0.40387,0.46788 0.34241,0.59727 -0.40284,0.87892 -1.35795,0.51316 -3.49304,0.4223 -5.13617,-0.21058 -1.6398,-0.63162 -1.76946,-0.87813 -0.89721,-1.70289 0.39053,-0.36926 1.07575,-0.54655 1.8677,-0.56763 z"
         id="path2839"
         inkscape:connector-curvature="0"
         transform="matrix(33.655903,0,0,33.655903,5514.0445,-6765.3048)" />
      <path
         style="opacity:1;fill:#2e3436;fill-opacity:1;fill-rule:nonzero;stroke:none;stroke-width:0.31205788"
         d="m -155.99065,233.86441 c 0.056,-1.1e-4 0.11582,0.004 0.17398,0.009 0.46499,0.0446 0.99565,0.27557 1.63877,0.6958 l 1.09863,0.70496 -1.48316,-0.21057 c -1.09995,-0.1664 -1.33607,-0.13271 -0.92465,0.14648 0.3054,0.20727 0.97248,0.39164 1.48313,0.412 0.91055,0.0363 0.91219,0.0573 -0.18311,0.53101 -1.18183,0.5111 -4.01519,0.61188 -5.11779,0.19225 -0.55949,-0.2129 -0.47017,-0.33911 0.56758,-0.91553 0.67059,-0.37244 1.44077,-0.89086 1.71206,-1.14441 0.30452,-0.28459 0.64286,-0.42038 1.03456,-0.42115 z"
         id="path2841"
         inkscape:connector-curvature="0"
         transform="matrix(33.655903,0,0,33.655903,5514.0445,-6765.3048)" />
      <path
         style="opacity:1;fill:#2e3436;fill-opacity:1;fill-rule:nonzero;stroke:none;stroke-width:0.31205788"
         d="m -135.87638,233.89191 c 1.27726,0.007 11.88472,5.87739 11.13289,6.16154 -1.00601,0.38021 -2.85779,0.21127 -4.79736,-0.43946 -1.10282,-0.36999 -3.1999,-1.32768 -4.66923,-2.13319 -1.46938,-0.8055 -3.64493,-1.89811 -4.82489,-2.42616 -1.97111,-0.88213 -2.0547,-0.97711 -1.09866,-1.09865 0.63566,-0.0808 1.99393,0.29786 3.48818,0.97047 1.34546,0.60559 2.50248,1.03632 2.58183,0.96131 0.0793,-0.075 -0.44199,-0.40348 -1.16273,-0.73242 -1.3978,-0.638 -1.72072,-1.26914 -0.65003,-1.26344 z"
         id="path2843"
         inkscape:connector-curvature="0"
         transform="matrix(33.655903,0,0,33.655903,5514.0445,-6765.3048)" />
      <path
         style="opacity:1;fill:#2e3436;fill-opacity:1;fill-rule:nonzero;stroke:none;stroke-width:0.31205788"
         d="m -150.68059,234.70678 c 1.92261,0.0179 2.35325,0.152 3.34173,1.06201 1.15779,1.06584 1.49153,1.84734 0.65919,1.51979 -0.25488,-0.1003 -0.79136,-0.29829 -1.19936,-0.43029 -0.70394,-0.22778 -0.70292,-0.21042 -0.0458,0.19226 0.56039,0.34334 0.58702,0.48499 0.17396,0.73242 -0.76547,0.45849 -2.19194,0.3656 -4.39455,-0.2655 l -1.96839,-0.55848 1.01621,-0.63171 c 0.56212,-0.34866 1.38186,-0.56298 1.82192,-0.48524 0.47236,0.0834 0.31748,-0.0843 -0.39369,-0.40283 -0.66255,-0.29675 -1.19962,-0.58515 -1.19933,-0.64087 2.6e-4,-0.0557 0.97567,-0.10285 2.18807,-0.0916 z"
         id="path2845"
         inkscape:connector-curvature="0"
         transform="matrix(33.655903,0,0,33.655903,5514.0445,-6765.3048)" />
      <path
         style="opacity:1;fill:#2e3436;fill-opacity:1;fill-rule:nonzero;stroke:none;stroke-width:0.31205788"
         d="m -140.25261,235.5399 c 0.0747,0.005 0.15072,0.0189 0.2289,0.0275 0.9379,0.10279 2.4102,0.76178 4.97131,2.14235 1.32486,0.71418 2.9534,1.56114 3.64382,1.88599 1.36734,0.64334 1.19424,0.93129 -0.85142,1.40993 -1.93823,0.45348 -3.5665,0.0144 -8.30389,-2.27968 l -4.56855,-2.21559 1.42825,-0.22888 c 1.01276,-0.16894 1.79567,-0.0486 2.79237,0.41198 0.76441,0.35325 1.40007,0.52358 1.40078,0.38453 0,-0.13906 -0.45569,-0.46267 -1.01625,-0.71412 -0.95112,-0.42662 -0.97839,-0.47513 -0.28381,-0.72326 0.10845,-0.0387 0.21819,-0.0784 0.34788,-0.0916 0.0649,-0.007 0.13595,-0.0138 0.21061,-0.009 z"
         id="path2847"
         inkscape:connector-curvature="0"
         transform="matrix(33.655903,0,0,33.655903,5514.0445,-6765.3048)" />
      <path
         style="opacity:1;fill:#2e3436;fill-opacity:1;fill-rule:nonzero;stroke:none;stroke-width:0.31205788"
         d="m -160.8979,236.64768 c 0.29317,8.7e-4 0.99155,0.18815 1.56555,0.41198 l 1.04374,0.40284 -0.9247,0.28381 c -0.7995,0.25509 -0.75456,0.29293 0.2838,0.15565 0.87132,-0.11521 1.20123,-0.0293 1.19936,0.32958 -0.004,0.83567 -2.50362,1.10647 -4.33963,0.46692 -1.90535,-0.66369 -1.52059,-1.18366 0.80566,-1.07117 0.40855,0.0198 0.53871,-0.0536 0.28384,-0.15564 -0.6337,-0.2537 -0.57332,-0.82598 0.0824,-0.82397 z"
         id="path2849"
         inkscape:connector-curvature="0"
         transform="matrix(33.655903,0,0,33.655903,5514.0445,-6765.3048)" />
      <path
         style="opacity:1;fill:#2e3436;fill-opacity:1;fill-rule:nonzero;stroke:none;stroke-width:0.31205788"
         d="m -145.19651,237.30687 c 0.22567,0.0149 0.56618,0.15293 1.14441,0.41198 2.91443,1.30564 7.48995,3.61494 7.48904,3.79031 -0.004,0.74645 -3.51577,1.08185 -5.53893,0.52185 -0.69061,-0.19115 -2.44423,-1.02989 -3.891,-1.86768 -2.60499,-1.50845 -2.63056,-1.54966 -1.4191,-1.65711 0.80857,-0.0717 1.77493,0.21076 2.84732,0.81482 2.24357,1.2637 2.63076,1.14831 0.48523,-0.14649 -1.1414,-0.6888 -1.67291,-1.22608 -1.5381,-1.5564 0.0878,-0.21498 0.19551,-0.32623 0.42113,-0.31128 z"
         id="path2851"
         inkscape:connector-curvature="0"
         transform="matrix(33.655903,0,0,33.655903,5514.0445,-6765.3048)" />
      <path
         style="opacity:1;fill:#2e3436;fill-opacity:1;fill-rule:nonzero;stroke:none;stroke-width:0.31205788"
         d="m -156.64984,237.46251 c 0.13276,-5.9e-4 0.2906,0.003 0.46695,0.009 0.23516,0.009 0.50811,0.0325 0.80564,0.0549 1.96842,0.14871 4.29636,1.06676 3.82696,1.51063 -0.10526,0.0995 -1.12964,-0.0868 -2.28883,-0.41199 -1.15919,-0.3252 -2.18754,-0.5078 -2.28886,-0.41199 -0.10131,0.0958 0.54041,0.33663 1.42825,0.55848 2.72438,0.68073 2.90422,0.77272 2.90223,1.16272 -0.003,0.49605 -5.10221,0.14958 -5.658,-0.38452 -0.29355,-0.2821 -0.23001,-0.46888 0.21971,-0.63172 0.72966,-0.26417 0.81816,-1.05388 0.15569,-1.35498 -0.14338,-0.0652 0.032,-0.0987 0.43026,-0.10072 z"
         id="path2853"
         inkscape:connector-curvature="0"
         transform="matrix(33.655903,0,0,33.655903,5514.0445,-6765.3048)" />
      <path
         style="opacity:1;fill:#2e3436;fill-opacity:1;fill-rule:nonzero;stroke:none;stroke-width:0.31205788"
         d="m -150.34178,238.65268 c 0.44506,0.0169 1.45938,0.56885 3.74449,1.86769 1.52801,0.86845 3.35431,1.76438 4.06498,2.00502 l 1.30924,0.44861 -1.10785,0.58594 c -1.56841,0.82996 -3.83842,0.48536 -6.76575,-1.03455 -3.36215,-1.7457 -3.28515,-1.68655 -2.39868,-1.99587 0.5624,-0.19625 1.27372,-0.008 2.48106,0.64088 0.93588,0.50281 1.77469,0.83867 1.8677,0.75074 0.093,-0.0879 -0.66469,-0.60164 -1.68459,-1.13526 -1.22393,-0.64039 -1.83329,-1.19329 -1.83107,-1.63881 0.003,-0.3179 0.0535,-0.50455 0.32047,-0.49439 z"
         id="path2855"
         inkscape:connector-curvature="0"
         transform="matrix(33.655903,0,0,33.655903,5514.0445,-6765.3048)" />
      <path
         style="opacity:1;fill:#2e3436;fill-opacity:1;fill-rule:nonzero;stroke:none;stroke-width:0.31205788"
         d="m -160.85211,239.48582 c 0.0695,-0.0132 0.1786,0.002 0.3204,0.0183 0.18908,0.0217 0.44612,0.0752 0.78735,0.13733 1.69807,0.30908 3.49073,1.15078 3.48821,1.63881 0,0.19916 -0.44757,0.2502 -1.0254,0.12817 -0.78583,-0.16597 -0.89448,-0.11791 -0.46694,0.17395 0.42654,0.29111 0.17623,0.37926 -1.10776,0.37537 -0.91944,-0.003 -1.88897,-0.14581 -2.16069,-0.31128 -0.39571,-0.24107 -0.38439,-0.33707 0.1007,-0.5127 0.49576,-0.17948 0.52926,-0.37481 0.18311,-0.99793 -0.2289,-0.41214 -0.32769,-0.61051 -0.11898,-0.65004 z"
         id="path2857"
         inkscape:connector-curvature="0"
         transform="matrix(33.655903,0,0,33.655903,5514.0445,-6765.3048)" />
      <path
         style="opacity:1;fill:#2e3436;fill-opacity:1;fill-rule:nonzero;stroke:none;stroke-width:0.31205788"
         d="m -155.60615,240.6028 c 0.0566,-2e-4 0.12129,0.004 0.1923,0.009 0.85247,0.0681 2.66803,0.58592 3.55225,1.09864 0.67536,0.39159 2.32355,1.24075 3.68045,1.886 l 2.46275,1.18104 -1.28171,0.35706 c -1.79163,0.49898 -3.23925,0.21773 -6.48201,-1.26344 -2.20047,-1.00514 -2.70267,-1.38159 -2.38037,-1.74867 0.38395,-0.43719 1.15656,-0.34243 2.00502,0.21973 0.54129,0.3586 1.68368,0.70791 1.68459,0.52185 0,-0.088 -0.83945,-0.56548 -1.85851,-1.06202 -1.01905,-0.49655 -1.84075,-0.99572 -1.84025,-1.09864 0,-0.0727 0.0957,-0.10009 0.26549,-0.10071 z"
         id="path2859"
         inkscape:connector-curvature="0"
         transform="matrix(33.655903,0,0,33.655903,5514.0445,-6765.3048)" />
    </g>
    <g
       transform="matrix(0.08299754,-0.05155446,0.03893933,0.10988614,219.55111,131.31293)"
       id="g2921"
       style="display:inline;opacity:1;fill:#2e3436;fill-opacity:1;fill-rule:nonzero;stroke:none;image-rendering:optimizeQuality"
       inkscape:export-xdpi="95.475525"
       inkscape:export-ydpi="95.475525">
      <path
         transform="matrix(33.655903,0,0,33.655903,5514.0445,-6765.3048)"
         inkscape:connector-curvature="0"
         id="path2863"
         d="m -76.366655,214.61111 c 0.0468,-0.003 0.0889,-0.003 0.12814,0 0.52419,0.0425 0.37359,0.67322 -0.35707,2.02333 -2.86135,5.28703 -11.29797,7.34277 -27.383575,6.67424 -3.26839,-0.13584 -7.10284,-0.27879 -8.53278,-0.32959 l -2.60927,-0.10071 2.55435,-0.37537 c 1.39794,-0.21288 2.42344,-0.50303 2.28883,-0.63172 -0.43046,-0.41145 0.98781,-0.61079 6.69253,-0.97046 3.06577,-0.1933 6.573435,-0.52639 7.800315,-0.72327 6.18109,-0.99195 13.75719,-3.12986 17.85295,-5.03544 0.71963,-0.33483 1.23786,-0.50963 1.56558,-0.53101 z"
         style="opacity:1;fill:#2e3436;fill-opacity:1;fill-rule:nonzero;stroke:none;stroke-width:0.31205788" />
      <path
         transform="matrix(33.655903,0,0,33.655903,5514.0445,-6765.3048)"
         inkscape:connector-curvature="0"
         id="path2865"
         d="m -80.010505,221.12055 c -2.7e-4,0.0448 -0.24789,0.56781 -0.56762,1.17189 -1.15512,2.18217 -4.35522,3.9962 -8.15743,4.64175 -1.93829,0.3291 -15.284445,0.10815 -22.750985,-0.37537 -3.29583,-0.21344 -4.32501,-0.40366 -4.93475,-0.93384 -0.69929,-0.60802 -0.72492,-0.72427 -0.19223,-1.22681 0.50913,-0.48029 2.2569,-0.54154 13.29354,-0.5127 13.785985,0.036 16.385095,-0.20118 21.020645,-1.9684 1.26521,-0.48233 2.28909,-0.84134 2.28883,-0.79652 z"
         style="opacity:1;fill:#2e3436;fill-opacity:1;fill-rule:nonzero;stroke:none;stroke-width:0.31205788" />
      <path
         transform="matrix(33.655903,0,0,33.655903,5514.0445,-6765.3048)"
         inkscape:connector-curvature="0"
         id="path2867"
         d="m -116.14661,223.00651 c 0.15976,0.005 -0.003,0.14115 -0.4395,0.47608 -0.80552,0.61784 -3.00603,0.73442 -3.35999,0.1831 -0.13407,-0.20891 0.28322,-0.36556 1.00706,-0.3662 0.67615,-5.9e-4 1.64024,-0.0755 2.15153,-0.18311 0.3365,-0.0708 0.54506,-0.11267 0.6409,-0.10987 z"
         style="opacity:1;fill:#2e3436;fill-opacity:1;fill-rule:nonzero;stroke:none;stroke-width:0.31205788" />
      <path
         transform="matrix(33.655903,0,0,33.655903,5514.0445,-6765.3048)"
         inkscape:connector-curvature="0"
         id="path2869"
         d="m -125.92453,223.7481 c 0.46528,-0.008 0.95545,-0.005 1.44653,0 3.28682,0.0353 3.52867,0.0879 3.20438,0.65918 -0.6225,1.09683 -4.34139,1.33382 -6.71087,0.42115 -1.31951,-0.50826 -1.44352,-0.65037 -0.81486,-0.86976 0.30429,-0.10617 1.47904,-0.1858 2.87482,-0.21057 z"
         style="opacity:1;fill:#2e3436;fill-opacity:1;fill-rule:nonzero;stroke:none;stroke-width:0.31205788" />
      <path
         transform="matrix(33.655903,0,0,33.655903,5514.0445,-6765.3048)"
         inkscape:connector-curvature="0"
         id="path2871"
         d="m -132.7452,224.0502 c 0.0794,-0.004 0.16131,-0.002 0.24715,0 1.48799,0.0305 3.8917,0.96997 5.64887,2.32545 0.0958,0.0739 -0.0739,0.29429 -0.3754,0.48524 -0.98983,0.62678 -5.93523,0.16938 -8.43206,-0.77821 -1.27451,-0.4837 -2.30787,-0.9882 -2.30714,-1.13526 0,-0.24705 0.44237,-0.3189 2.97545,-0.4303 0.51092,-0.0225 1.23973,-0.16945 1.62967,-0.33874 0.16986,-0.0738 0.3752,-0.11527 0.61346,-0.12818 z"
         style="opacity:1;fill:#2e3436;fill-opacity:1;fill-rule:nonzero;stroke:none;stroke-width:0.31205788" />
      <path
         transform="matrix(33.655903,0,0,33.655903,5514.0445,-6765.3048)"
         inkscape:connector-curvature="0"
         id="path2873"
         d="m -120.14749,224.79167 c 0.0767,-0.003 0.15535,-0.004 0.23805,0 0.6617,0.03 1.49428,0.2657 2.10572,0.65918 l 1.18101,0.75074 -2.02334,-0.18311 -2.05077,-0.17395 1.84935,0.44861 c 1.16606,0.27783 1.65106,0.52514 1.30005,0.66834 -0.95445,0.38941 -7.72352,0.0867 -8.194,-0.36622 -0.33293,-0.32051 0.16933,-0.48494 2.18816,-0.66833 1.62909,-0.14801 2.60092,-0.37601 2.55432,-0.62257 -0.061,-0.32278 0.31435,-0.49434 0.85145,-0.51269 z"
         style="opacity:1;fill:#2e3436;fill-opacity:1;fill-rule:nonzero;stroke:none;stroke-width:0.31205788" />
      <path
         transform="matrix(33.655903,0,0,33.655903,5514.0445,-6765.3048)"
         inkscape:connector-curvature="0"
         id="path2875"
         d="m -139.99624,225.4416 c 1.57926,0.004 5.81197,1.64774 5.95096,2.58181 0.0881,0.59259 -0.12843,0.63925 -2.4079,0.43031 -1.37316,-0.12587 -3.62726,-0.5681 -5.0171,-0.98878 -2.62304,-0.79398 -2.75422,-1.3789 -0.31128,-1.38246 0.66404,-8.7e-4 1.20752,-0.16231 1.20849,-0.35705 0,-0.20388 0.21233,-0.28471 0.57683,-0.28383 z"
         style="opacity:1;fill:#2e3436;fill-opacity:1;fill-rule:nonzero;stroke:none;stroke-width:0.31205788" />
      <path
         transform="matrix(33.655903,0,0,33.655903,5514.0445,-6765.3048)"
         inkscape:connector-curvature="0"
         id="path2877"
         d="m -84.478335,226.29305 c 0.0541,-0.01 0.0962,-0.001 0.12822,0.009 0.12762,0.0428 0.0842,0.25077 -0.0275,0.65003 -0.26034,0.93089 -2.48291,3.04725 -3.95513,3.772 -3.23418,1.59223 -6.73328,1.50393 -19.217015,-0.47608 -5.6142,-0.89045 -11.27041,-1.73304 -12.59773,-1.87684 l -2.42618,-0.25635 2.60929,-0.27466 c 1.431,-0.15179 3.67123,-0.21062 4.99878,-0.11902 l 2.43534,0.17395 -2.0508,-0.38453 c -3.30745,-0.6265 -1.40906,-0.76679 4.60515,-0.32959 13.949285,1.01406 21.949125,0.84246 24.682775,-0.54016 0.38951,-0.19701 0.65263,-0.31939 0.8148,-0.3479 z"
         style="opacity:1;fill:#2e3436;fill-opacity:1;fill-rule:nonzero;stroke:none;stroke-width:0.31205788" />
      <path
         transform="matrix(33.655903,0,0,33.655903,5514.0445,-6765.3048)"
         inkscape:connector-curvature="0"
         id="path2879"
         d="m -144.94015,227.12629 c 0.97447,0.003 4.41649,1.21333 5.246,1.84022 1.87457,1.41664 0.22327,1.7386 -4.13824,0.82398 -1.39095,-0.29169 -3.0134,-0.66348 -3.62548,-0.83313 l -1.12613,-0.31129 1.64799,-0.75989 c 0.90885,-0.41836 1.8103,-0.76046 1.99586,-0.75989 z"
         style="opacity:1;fill:#2e3436;fill-opacity:1;fill-rule:nonzero;stroke:none;stroke-width:0.31205788" />
      <path
         transform="matrix(33.655903,0,0,33.655903,5514.0445,-6765.3048)"
         inkscape:connector-curvature="0"
         id="path2881"
         d="m -126.10764,227.35517 c 1.38972,0.0716 3.82485,1.1143 3.62551,1.67543 -0.43916,1.23641 -5.46653,1.17049 -8.26723,-0.11902 l -1.84942,-0.8606 1.79447,-0.0915 c 0.98916,-0.0572 2.60189,0.15751 3.62551,0.48523 1.01917,0.32628 1.96529,0.49086 2.08743,0.37537 0.12215,-0.1155 -0.31209,-0.30445 -0.96133,-0.4303 -1.52827,-0.29627 -1.76475,-0.71767 -0.57677,-0.99793 0.14449,-0.0341 0.32333,-0.0469 0.52183,-0.0366 z"
         style="opacity:1;fill:#2e3436;fill-opacity:1;fill-rule:nonzero;stroke:none;stroke-width:0.31205788" />
      <path
         transform="matrix(33.655903,0,0,33.655903,5514.0445,-6765.3048)"
         inkscape:connector-curvature="0"
         id="path2883"
         d="m -137.81727,228.93874 c 0.0535,-8.7e-4 0.10769,0.003 0.17389,0.009 0.31807,0.0281 0.79993,0.13229 1.44657,0.31128 0.81833,0.22649 1.52037,0.22444 2.10572,-0.0275 1.29133,-0.55565 3.37853,-0.0422 4.73332,1.16273 l 1.19935,1.05287 -1.11697,-0.22889 c -0.61226,-0.12923 -1.67721,-0.47072 -2.37118,-0.74158 -0.69403,-0.27088 -1.33548,-0.42697 -1.41909,-0.34791 -0.0836,0.079 0.65766,0.42112 1.6388,0.76905 0.98111,0.34793 1.93077,0.789 2.12403,0.95216 0.50173,0.42357 -1.63632,0.34782 -3.95513,-0.12817 -2.36711,-0.48595 -4.57332,-1.51246 -4.87062,-2.26137 -0.13762,-0.34674 -0.0631,-0.51606 0.31131,-0.52186 z"
         style="opacity:1;fill:#2e3436;fill-opacity:1;fill-rule:nonzero;stroke:none;stroke-width:0.31205788" />
      <path
         transform="matrix(33.655903,0,0,33.655903,5514.0445,-6765.3048)"
         inkscape:connector-curvature="0"
         id="path2885"
         d="m -120.37639,229.04864 c 0.097,-8.7e-4 0.20979,0.002 0.32957,0.009 1.67709,0.10549 5.58971,0.70608 12.14,1.8036 6.38207,1.06934 9.835445,1.47537 12.881545,1.51063 l 4.15659,0.0549 -0.8057,0.81482 c -1.83425,1.85728 -4.82978,2.57552 -8.706735,2.07826 -1.26006,-0.16161 -4.92928,-1.01149 -8.14828,-1.89515 -3.21892,-0.88367 -7.74327,-1.96606 -10.06168,-2.38955 -2.62061,-0.47869 -4.0378,-0.86235 -3.73539,-1.0437 0.26755,-0.16045 0.81816,-0.29741 1.22683,-0.30213 0.62692,-0.007 0.66995,-0.0847 0.20142,-0.40283 -0.21151,-0.14362 -0.13322,-0.21772 0.2655,-0.22889 0.0747,-0.002 0.15941,-0.008 0.25633,-0.009 z"
         style="opacity:1;fill:#2e3436;fill-opacity:1;fill-rule:nonzero;stroke:none;stroke-width:0.31205788" />
      <path
         transform="matrix(33.655903,0,0,33.655903,5514.0445,-6765.3048)"
         inkscape:connector-curvature="0"
         id="path2887"
         d="m -148.75792,229.35084 c 0.0635,-0.002 0.12594,0.006 0.19226,0.009 0.31839,0.0149 0.66536,0.086 1.14439,0.21057 1.78016,0.46293 3.58818,1.7037 3.241,2.2339 -0.3166,0.48353 -4.83811,0.14948 -6.18898,-0.45776 -1.30971,-0.58873 -1.27103,-0.80234 0.21058,-1.55641 0.55831,-0.28417 0.95615,-0.42576 1.40075,-0.43945 z"
         style="opacity:1;fill:#2e3436;fill-opacity:1;fill-rule:nonzero;stroke:none;stroke-width:0.31205788" />
      <path
         transform="matrix(33.655903,0,0,33.655903,5514.0445,-6765.3048)"
         inkscape:connector-curvature="0"
         id="path2889"
         d="m -138.8793,230.68771 c 0.61708,0.009 1.60963,0.34959 2.54519,0.92468 1.14605,0.70451 1.27621,0.86865 0.55843,0.71412 -0.51024,-0.10984 -1.3483,-0.30442 -1.85851,-0.41198 -0.51024,-0.10759 -0.19034,0.11414 0.71415,0.48523 1.07447,0.44085 1.45701,0.74067 1.10776,0.87891 -0.52388,0.20733 -4.05764,0.0222 -5.92352,-0.32044 -0.61989,-0.11384 -1.09459,-0.53639 -1.36412,-1.22682 -0.49167,-1.2593 -0.26488,-1.30861 2.27048,-0.47607 0.96531,0.31697 1.84265,0.46679 1.96842,0.34791 0.12577,-0.11891 0.037,-0.20986 -0.20139,-0.21058 -0.23834,-5.8e-4 -0.42213,-0.14401 -0.42116,-0.33875 0,-0.24427 0.23401,-0.37142 0.60427,-0.36621 z"
         style="opacity:1;fill:#2e3436;fill-opacity:1;fill-rule:nonzero;stroke:none;stroke-width:0.31205788" />
      <path
         transform="matrix(33.655903,0,0,33.655903,5514.0445,-6765.3048)"
         inkscape:connector-curvature="0"
         id="path2891"
         d="m -127.86545,230.72421 c 0.019,-0.004 0.0453,-5.8e-4 0.0732,0 0.13437,0.003 0.3697,0.0652 0.74157,0.15564 0.6122,0.14888 2.35485,0.49515 3.87271,0.77821 1.51783,0.28305 4.26284,1.00121 6.07914,1.60218 1.81629,0.60096 3.36188,1.03695 3.45161,0.95216 0.2195,-0.20761 -4.83478,-1.92432 -7.52573,-2.55434 -2.88818,-0.67622 -1.04649,-0.69581 2.55433,-0.0275 4.05348,0.75235 5.90514,1.19695 10.1258,2.42617 2.04015,0.59415 5.14184,1.36302 6.86653,1.70289 l 3.121945,0.60425 -1.00706,0.62256 c -3.519755,2.18064 -6.662135,2.07544 -12.524515,-0.45776 -4.90479,-2.11942 -10.12653,-3.82581 -13.97105,-4.55936 -0.64932,-0.12389 -1.39832,-0.47464 -1.66627,-0.78736 -0.23735,-0.27704 -0.325,-0.42835 -0.19226,-0.45777 z"
         style="opacity:1;fill:#2e3436;fill-opacity:1;fill-rule:nonzero;stroke:none;stroke-width:0.31205788" />
      <path
         transform="matrix(33.655903,0,0,33.655903,5514.0445,-6765.3048)"
         inkscape:connector-curvature="0"
         id="path2893"
         d="m -152.42006,231.28271 c 0.0656,-0.009 0.13695,-0.007 0.21058,0 0.29467,0.0267 0.67092,0.16713 1.26346,0.45777 1.91725,0.94051 2.22285,1.53195 0.63168,1.22681 -0.92558,-0.1775 -1.11527,-0.13744 -0.70494,0.13733 0.30543,0.20452 0.90066,0.38492 1.30921,0.40284 0.7428,0.0326 0.73537,0.0458 -0.009,0.3479 -1.06853,0.43352 -2.66345,0.4033 -4.31216,-0.0732 -1.13198,-0.3272 -1.3533,-0.51467 -1.02544,-0.88807 0.27652,-0.31489 0.92676,-0.41425 1.95011,-0.29297 1.39075,0.16481 1.36986,0.0472 -0.0915,-0.40284 -0.40609,-0.12506 -0.3642,-0.25323 0.18311,-0.63172 0.22714,-0.1571 0.39834,-0.2566 0.59508,-0.28382 z"
         style="opacity:1;fill:#2e3436;fill-opacity:1;fill-rule:nonzero;stroke:none;stroke-width:0.31205788" />
      <path
         transform="matrix(33.655903,0,0,33.655903,5514.0445,-6765.3048)"
         inkscape:connector-curvature="0"
         id="path2895"
         d="m -134.10022,232.23467 c 1.51116,-0.10244 16.8348,6.64108 16.8458,7.4616 0.005,0.38349 -4.04474,0.3078 -5.52068,-0.10071 -1.47081,-0.40713 -11.49931,-5.76353 -11.51742,-6.15238 -0.026,-0.55968 1.10296,-0.19531 4.47699,1.42823 4.19789,2.01995 4.34814,2.09061 3.86356,1.62049 -0.44852,-0.43511 -5.8771,-3.13616 -7.37006,-3.66213 -0.58915,-0.20756 -0.9876,-0.45573 -0.87892,-0.55848 0.019,-0.018 0.052,-0.0333 0.10073,-0.0366 z"
         style="opacity:1;fill:#2e3436;fill-opacity:1;fill-rule:nonzero;stroke:none;stroke-width:0.31205788" />
      <path
         transform="matrix(33.655903,0,0,33.655903,5514.0445,-6765.3048)"
         inkscape:connector-curvature="0"
         id="path2897"
         d="m -127.39854,232.42697 c 0.0365,-0.006 0.11264,0.01 0.20143,0.0183 1.24303,0.12277 6.96972,1.59128 9.60394,2.49941 1.85155,0.6383 3.42253,1.27783 8.03839,3.29591 0.85526,0.37391 1.84789,0.69473 2.20645,0.69581 1.28449,0.004 -0.10839,0.73319 -1.95008,1.0254 -2.24451,0.3561 -4.64137,0.12184 -6.82991,-0.70496 -0.91766,-0.34669 -2.74059,-1.24396 -4.06496,-1.9684 -1.32433,-0.72445 -3.76163,-1.90836 -5.39247,-2.63673 -5.26636,-2.35215 -5.03568,-2.20029 -3.24101,-2.02333 0.86798,0.0856 1.51382,0.0154 1.40991,-0.14649 -0.0138,-0.0213 -0.0182,-0.0487 0.0184,-0.0549 z"
         style="opacity:1;fill:#2e3436;fill-opacity:1;fill-rule:nonzero;stroke:none;stroke-width:0.31205788" />
      <path
         transform="matrix(33.655903,0,0,33.655903,5514.0445,-6765.3048)"
         inkscape:connector-curvature="0"
         id="path2899"
         d="m -145.95639,232.77492 c 0.11313,-0.003 0.22172,-0.003 0.33875,0 1.56019,0.0437 3.40644,0.64848 4.22977,1.60218 0.40387,0.46788 0.34241,0.59727 -0.40284,0.87892 -1.35795,0.51316 -3.49304,0.4223 -5.13617,-0.21058 -1.6398,-0.63162 -1.76946,-0.87813 -0.89721,-1.70289 0.39053,-0.36926 1.07575,-0.54655 1.8677,-0.56763 z"
         style="opacity:1;fill:#2e3436;fill-opacity:1;fill-rule:nonzero;stroke:none;stroke-width:0.31205788" />
      <path
         transform="matrix(33.655903,0,0,33.655903,5514.0445,-6765.3048)"
         inkscape:connector-curvature="0"
         id="path2901"
         d="m -155.99065,233.86441 c 0.056,-1.1e-4 0.11582,0.004 0.17398,0.009 0.46499,0.0446 0.99565,0.27557 1.63877,0.6958 l 1.09863,0.70496 -1.48316,-0.21057 c -1.09995,-0.1664 -1.33607,-0.13271 -0.92465,0.14648 0.3054,0.20727 0.97248,0.39164 1.48313,0.412 0.91055,0.0363 0.91219,0.0573 -0.18311,0.53101 -1.18183,0.5111 -4.01519,0.61188 -5.11779,0.19225 -0.55949,-0.2129 -0.47017,-0.33911 0.56758,-0.91553 0.67059,-0.37244 1.44077,-0.89086 1.71206,-1.14441 0.30452,-0.28459 0.64286,-0.42038 1.03456,-0.42115 z"
         style="opacity:1;fill:#2e3436;fill-opacity:1;fill-rule:nonzero;stroke:none;stroke-width:0.31205788" />
      <path
         transform="matrix(33.655903,0,0,33.655903,5514.0445,-6765.3048)"
         inkscape:connector-curvature="0"
         id="path2903"
         d="m -135.87638,233.89191 c 1.27726,0.007 11.88472,5.87739 11.13289,6.16154 -1.00601,0.38021 -2.85779,0.21127 -4.79736,-0.43946 -1.10282,-0.36999 -3.1999,-1.32768 -4.66923,-2.13319 -1.46938,-0.8055 -3.64493,-1.89811 -4.82489,-2.42616 -1.97111,-0.88213 -2.0547,-0.97711 -1.09866,-1.09865 0.63566,-0.0808 1.99393,0.29786 3.48818,0.97047 1.34546,0.60559 2.50248,1.03632 2.58183,0.96131 0.0793,-0.075 -0.44199,-0.40348 -1.16273,-0.73242 -1.3978,-0.638 -1.72072,-1.26914 -0.65003,-1.26344 z"
         style="opacity:1;fill:#2e3436;fill-opacity:1;fill-rule:nonzero;stroke:none;stroke-width:0.31205788" />
      <path
         transform="matrix(33.655903,0,0,33.655903,5514.0445,-6765.3048)"
         inkscape:connector-curvature="0"
         id="path2905"
         d="m -150.68059,234.70678 c 1.92261,0.0179 2.35325,0.152 3.34173,1.06201 1.15779,1.06584 1.49153,1.84734 0.65919,1.51979 -0.25488,-0.1003 -0.79136,-0.29829 -1.19936,-0.43029 -0.70394,-0.22778 -0.70292,-0.21042 -0.0458,0.19226 0.56039,0.34334 0.58702,0.48499 0.17396,0.73242 -0.76547,0.45849 -2.19194,0.3656 -4.39455,-0.2655 l -1.96839,-0.55848 1.01621,-0.63171 c 0.56212,-0.34866 1.38186,-0.56298 1.82192,-0.48524 0.47236,0.0834 0.31748,-0.0843 -0.39369,-0.40283 -0.66255,-0.29675 -1.19962,-0.58515 -1.19933,-0.64087 2.6e-4,-0.0557 0.97567,-0.10285 2.18807,-0.0916 z"
         style="opacity:1;fill:#2e3436;fill-opacity:1;fill-rule:nonzero;stroke:none;stroke-width:0.31205788" />
      <path
         transform="matrix(33.655903,0,0,33.655903,5514.0445,-6765.3048)"
         inkscape:connector-curvature="0"
         id="path2907"
         d="m -140.25261,235.5399 c 0.0747,0.005 0.15072,0.0189 0.2289,0.0275 0.9379,0.10279 2.4102,0.76178 4.97131,2.14235 1.32486,0.71418 2.9534,1.56114 3.64382,1.88599 1.36734,0.64334 1.19424,0.93129 -0.85142,1.40993 -1.93823,0.45348 -3.5665,0.0144 -8.30389,-2.27968 l -4.56855,-2.21559 1.42825,-0.22888 c 1.01276,-0.16894 1.79567,-0.0486 2.79237,0.41198 0.76441,0.35325 1.40007,0.52358 1.40078,0.38453 0,-0.13906 -0.45569,-0.46267 -1.01625,-0.71412 -0.95112,-0.42662 -0.97839,-0.47513 -0.28381,-0.72326 0.10845,-0.0387 0.21819,-0.0784 0.34788,-0.0916 0.0649,-0.007 0.13595,-0.0138 0.21061,-0.009 z"
         style="opacity:1;fill:#2e3436;fill-opacity:1;fill-rule:nonzero;stroke:none;stroke-width:0.31205788" />
      <path
         transform="matrix(33.655903,0,0,33.655903,5514.0445,-6765.3048)"
         inkscape:connector-curvature="0"
         id="path2909"
         d="m -160.8979,236.64768 c 0.29317,8.7e-4 0.99155,0.18815 1.56555,0.41198 l 1.04374,0.40284 -0.9247,0.28381 c -0.7995,0.25509 -0.75456,0.29293 0.2838,0.15565 0.87132,-0.11521 1.20123,-0.0293 1.19936,0.32958 -0.004,0.83567 -2.50362,1.10647 -4.33963,0.46692 -1.90535,-0.66369 -1.52059,-1.18366 0.80566,-1.07117 0.40855,0.0198 0.53871,-0.0536 0.28384,-0.15564 -0.6337,-0.2537 -0.57332,-0.82598 0.0824,-0.82397 z"
         style="opacity:1;fill:#2e3436;fill-opacity:1;fill-rule:nonzero;stroke:none;stroke-width:0.31205788" />
      <path
         transform="matrix(33.655903,0,0,33.655903,5514.0445,-6765.3048)"
         inkscape:connector-curvature="0"
         id="path2911"
         d="m -145.19651,237.30687 c 0.22567,0.0149 0.56618,0.15293 1.14441,0.41198 2.91443,1.30564 7.48995,3.61494 7.48904,3.79031 -0.004,0.74645 -3.51577,1.08185 -5.53893,0.52185 -0.69061,-0.19115 -2.44423,-1.02989 -3.891,-1.86768 -2.60499,-1.50845 -2.63056,-1.54966 -1.4191,-1.65711 0.80857,-0.0717 1.77493,0.21076 2.84732,0.81482 2.24357,1.2637 2.63076,1.14831 0.48523,-0.14649 -1.1414,-0.6888 -1.67291,-1.22608 -1.5381,-1.5564 0.0878,-0.21498 0.19551,-0.32623 0.42113,-0.31128 z"
         style="opacity:1;fill:#2e3436;fill-opacity:1;fill-rule:nonzero;stroke:none;stroke-width:0.31205788" />
      <path
         transform="matrix(33.655903,0,0,33.655903,5514.0445,-6765.3048)"
         inkscape:connector-curvature="0"
         id="path2913"
         d="m -156.64984,237.46251 c 0.13276,-5.9e-4 0.2906,0.003 0.46695,0.009 0.23516,0.009 0.50811,0.0325 0.80564,0.0549 1.96842,0.14871 4.29636,1.06676 3.82696,1.51063 -0.10526,0.0995 -1.12964,-0.0868 -2.28883,-0.41199 -1.15919,-0.3252 -2.18754,-0.5078 -2.28886,-0.41199 -0.10131,0.0958 0.54041,0.33663 1.42825,0.55848 2.72438,0.68073 2.90422,0.77272 2.90223,1.16272 -0.003,0.49605 -5.10221,0.14958 -5.658,-0.38452 -0.29355,-0.2821 -0.23001,-0.46888 0.21971,-0.63172 0.72966,-0.26417 0.81816,-1.05388 0.15569,-1.35498 -0.14338,-0.0652 0.032,-0.0987 0.43026,-0.10072 z"
         style="opacity:1;fill:#2e3436;fill-opacity:1;fill-rule:nonzero;stroke:none;stroke-width:0.31205788" />
      <path
         transform="matrix(33.655903,0,0,33.655903,5514.0445,-6765.3048)"
         inkscape:connector-curvature="0"
         id="path2915"
         d="m -150.34178,238.65268 c 0.44506,0.0169 1.45938,0.56885 3.74449,1.86769 1.52801,0.86845 3.35431,1.76438 4.06498,2.00502 l 1.30924,0.44861 -1.10785,0.58594 c -1.56841,0.82996 -3.83842,0.48536 -6.76575,-1.03455 -3.36215,-1.7457 -3.28515,-1.68655 -2.39868,-1.99587 0.5624,-0.19625 1.27372,-0.008 2.48106,0.64088 0.93588,0.50281 1.77469,0.83867 1.8677,0.75074 0.093,-0.0879 -0.66469,-0.60164 -1.68459,-1.13526 -1.22393,-0.64039 -1.83329,-1.19329 -1.83107,-1.63881 0.003,-0.3179 0.0535,-0.50455 0.32047,-0.49439 z"
         style="opacity:1;fill:#2e3436;fill-opacity:1;fill-rule:nonzero;stroke:none;stroke-width:0.31205788" />
      <path
         transform="matrix(33.655903,0,0,33.655903,5514.0445,-6765.3048)"
         inkscape:connector-curvature="0"
         id="path2917"
         d="m -160.85211,239.48582 c 0.0695,-0.0132 0.1786,0.002 0.3204,0.0183 0.18908,0.0217 0.44612,0.0752 0.78735,0.13733 1.69807,0.30908 3.49073,1.15078 3.48821,1.63881 0,0.19916 -0.44757,0.2502 -1.0254,0.12817 -0.78583,-0.16597 -0.89448,-0.11791 -0.46694,0.17395 0.42654,0.29111 0.17623,0.37926 -1.10776,0.37537 -0.91944,-0.003 -1.88897,-0.14581 -2.16069,-0.31128 -0.39571,-0.24107 -0.38439,-0.33707 0.1007,-0.5127 0.49576,-0.17948 0.52926,-0.37481 0.18311,-0.99793 -0.2289,-0.41214 -0.32769,-0.61051 -0.11898,-0.65004 z"
         style="opacity:1;fill:#2e3436;fill-opacity:1;fill-rule:nonzero;stroke:none;stroke-width:0.31205788" />
      <path
         transform="matrix(33.655903,0,0,33.655903,5514.0445,-6765.3048)"
         inkscape:connector-curvature="0"
         id="path2919"
         d="m -155.60615,240.6028 c 0.0566,-2e-4 0.12129,0.004 0.1923,0.009 0.85247,0.0681 2.66803,0.58592 3.55225,1.09864 0.67536,0.39159 2.32355,1.24075 3.68045,1.886 l 2.46275,1.18104 -1.28171,0.35706 c -1.79163,0.49898 -3.23925,0.21773 -6.48201,-1.26344 -2.20047,-1.00514 -2.70267,-1.38159 -2.38037,-1.74867 0.38395,-0.43719 1.15656,-0.34243 2.00502,0.21973 0.54129,0.3586 1.68368,0.70791 1.68459,0.52185 0,-0.088 -0.83945,-0.56548 -1.85851,-1.06202 -1.01905,-0.49655 -1.84075,-0.99572 -1.84025,-1.09864 0,-0.0727 0.0957,-0.10009 0.26549,-0.10071 z"
         style="opacity:1;fill:#2e3436;fill-opacity:1;fill-rule:nonzero;stroke:none;stroke-width:0.31205788" />
    </g>
    <g
       style="display:inline;opacity:1;fill:#2e3436;fill-opacity:1;fill-rule:nonzero;stroke:none;image-rendering:optimizeQuality"
       id="g2981"
       transform="matrix(-0.08299754,-0.05155446,-0.03893933,0.10988614,299.06231,131.31293)"
       inkscape:export-xdpi="95.475525"
       inkscape:export-ydpi="95.475525">
      <path
         style="opacity:1;fill:#2e3436;fill-opacity:1;fill-rule:nonzero;stroke:none;stroke-width:0.31205788"
         d="m -76.366655,214.61111 c 0.0468,-0.003 0.0889,-0.003 0.12814,0 0.52419,0.0425 0.37359,0.67322 -0.35707,2.02333 -2.86135,5.28703 -11.29797,7.34277 -27.383575,6.67424 -3.26839,-0.13584 -7.10284,-0.27879 -8.53278,-0.32959 l -2.60927,-0.10071 2.55435,-0.37537 c 1.39794,-0.21288 2.42344,-0.50303 2.28883,-0.63172 -0.43046,-0.41145 0.98781,-0.61079 6.69253,-0.97046 3.06577,-0.1933 6.573435,-0.52639 7.800315,-0.72327 6.18109,-0.99195 13.75719,-3.12986 17.85295,-5.03544 0.71963,-0.33483 1.23786,-0.50963 1.56558,-0.53101 z"
         id="path2923"
         inkscape:connector-curvature="0"
         transform="matrix(33.655903,0,0,33.655903,5514.0445,-6765.3048)" />
      <path
         style="opacity:1;fill:#2e3436;fill-opacity:1;fill-rule:nonzero;stroke:none;stroke-width:0.31205788"
         d="m -80.010505,221.12055 c -2.7e-4,0.0448 -0.24789,0.56781 -0.56762,1.17189 -1.15512,2.18217 -4.35522,3.9962 -8.15743,4.64175 -1.93829,0.3291 -15.284445,0.10815 -22.750985,-0.37537 -3.29583,-0.21344 -4.32501,-0.40366 -4.93475,-0.93384 -0.69929,-0.60802 -0.72492,-0.72427 -0.19223,-1.22681 0.50913,-0.48029 2.2569,-0.54154 13.29354,-0.5127 13.785985,0.036 16.385095,-0.20118 21.020645,-1.9684 1.26521,-0.48233 2.28909,-0.84134 2.28883,-0.79652 z"
         id="path2925"
         inkscape:connector-curvature="0"
         transform="matrix(33.655903,0,0,33.655903,5514.0445,-6765.3048)" />
      <path
         style="opacity:1;fill:#2e3436;fill-opacity:1;fill-rule:nonzero;stroke:none;stroke-width:0.31205788"
         d="m -116.14661,223.00651 c 0.15976,0.005 -0.003,0.14115 -0.4395,0.47608 -0.80552,0.61784 -3.00603,0.73442 -3.35999,0.1831 -0.13407,-0.20891 0.28322,-0.36556 1.00706,-0.3662 0.67615,-5.9e-4 1.64024,-0.0755 2.15153,-0.18311 0.3365,-0.0708 0.54506,-0.11267 0.6409,-0.10987 z"
         id="path2927"
         inkscape:connector-curvature="0"
         transform="matrix(33.655903,0,0,33.655903,5514.0445,-6765.3048)" />
      <path
         style="opacity:1;fill:#2e3436;fill-opacity:1;fill-rule:nonzero;stroke:none;stroke-width:0.31205788"
         d="m -125.92453,223.7481 c 0.46528,-0.008 0.95545,-0.005 1.44653,0 3.28682,0.0353 3.52867,0.0879 3.20438,0.65918 -0.6225,1.09683 -4.34139,1.33382 -6.71087,0.42115 -1.31951,-0.50826 -1.44352,-0.65037 -0.81486,-0.86976 0.30429,-0.10617 1.47904,-0.1858 2.87482,-0.21057 z"
         id="path2929"
         inkscape:connector-curvature="0"
         transform="matrix(33.655903,0,0,33.655903,5514.0445,-6765.3048)" />
      <path
         style="opacity:1;fill:#2e3436;fill-opacity:1;fill-rule:nonzero;stroke:none;stroke-width:0.31205788"
         d="m -132.7452,224.0502 c 0.0794,-0.004 0.16131,-0.002 0.24715,0 1.48799,0.0305 3.8917,0.96997 5.64887,2.32545 0.0958,0.0739 -0.0739,0.29429 -0.3754,0.48524 -0.98983,0.62678 -5.93523,0.16938 -8.43206,-0.77821 -1.27451,-0.4837 -2.30787,-0.9882 -2.30714,-1.13526 0,-0.24705 0.44237,-0.3189 2.97545,-0.4303 0.51092,-0.0225 1.23973,-0.16945 1.62967,-0.33874 0.16986,-0.0738 0.3752,-0.11527 0.61346,-0.12818 z"
         id="path2931"
         inkscape:connector-curvature="0"
         transform="matrix(33.655903,0,0,33.655903,5514.0445,-6765.3048)" />
      <path
         style="opacity:1;fill:#2e3436;fill-opacity:1;fill-rule:nonzero;stroke:none;stroke-width:0.31205788"
         d="m -120.14749,224.79167 c 0.0767,-0.003 0.15535,-0.004 0.23805,0 0.6617,0.03 1.49428,0.2657 2.10572,0.65918 l 1.18101,0.75074 -2.02334,-0.18311 -2.05077,-0.17395 1.84935,0.44861 c 1.16606,0.27783 1.65106,0.52514 1.30005,0.66834 -0.95445,0.38941 -7.72352,0.0867 -8.194,-0.36622 -0.33293,-0.32051 0.16933,-0.48494 2.18816,-0.66833 1.62909,-0.14801 2.60092,-0.37601 2.55432,-0.62257 -0.061,-0.32278 0.31435,-0.49434 0.85145,-0.51269 z"
         id="path2933"
         inkscape:connector-curvature="0"
         transform="matrix(33.655903,0,0,33.655903,5514.0445,-6765.3048)" />
      <path
         style="opacity:1;fill:#2e3436;fill-opacity:1;fill-rule:nonzero;stroke:none;stroke-width:0.31205788"
         d="m -139.99624,225.4416 c 1.57926,0.004 5.81197,1.64774 5.95096,2.58181 0.0881,0.59259 -0.12843,0.63925 -2.4079,0.43031 -1.37316,-0.12587 -3.62726,-0.5681 -5.0171,-0.98878 -2.62304,-0.79398 -2.75422,-1.3789 -0.31128,-1.38246 0.66404,-8.7e-4 1.20752,-0.16231 1.20849,-0.35705 0,-0.20388 0.21233,-0.28471 0.57683,-0.28383 z"
         id="path2935"
         inkscape:connector-curvature="0"
         transform="matrix(33.655903,0,0,33.655903,5514.0445,-6765.3048)" />
      <path
         style="opacity:1;fill:#2e3436;fill-opacity:1;fill-rule:nonzero;stroke:none;stroke-width:0.31205788"
         d="m -84.478335,226.29305 c 0.0541,-0.01 0.0962,-0.001 0.12822,0.009 0.12762,0.0428 0.0842,0.25077 -0.0275,0.65003 -0.26034,0.93089 -2.48291,3.04725 -3.95513,3.772 -3.23418,1.59223 -6.73328,1.50393 -19.217015,-0.47608 -5.6142,-0.89045 -11.27041,-1.73304 -12.59773,-1.87684 l -2.42618,-0.25635 2.60929,-0.27466 c 1.431,-0.15179 3.67123,-0.21062 4.99878,-0.11902 l 2.43534,0.17395 -2.0508,-0.38453 c -3.30745,-0.6265 -1.40906,-0.76679 4.60515,-0.32959 13.949285,1.01406 21.949125,0.84246 24.682775,-0.54016 0.38951,-0.19701 0.65263,-0.31939 0.8148,-0.3479 z"
         id="path2937"
         inkscape:connector-curvature="0"
         transform="matrix(33.655903,0,0,33.655903,5514.0445,-6765.3048)" />
      <path
         style="opacity:1;fill:#2e3436;fill-opacity:1;fill-rule:nonzero;stroke:none;stroke-width:0.31205788"
         d="m -144.94015,227.12629 c 0.97447,0.003 4.41649,1.21333 5.246,1.84022 1.87457,1.41664 0.22327,1.7386 -4.13824,0.82398 -1.39095,-0.29169 -3.0134,-0.66348 -3.62548,-0.83313 l -1.12613,-0.31129 1.64799,-0.75989 c 0.90885,-0.41836 1.8103,-0.76046 1.99586,-0.75989 z"
         id="path2939"
         inkscape:connector-curvature="0"
         transform="matrix(33.655903,0,0,33.655903,5514.0445,-6765.3048)" />
      <path
         style="opacity:1;fill:#2e3436;fill-opacity:1;fill-rule:nonzero;stroke:none;stroke-width:0.31205788"
         d="m -126.10764,227.35517 c 1.38972,0.0716 3.82485,1.1143 3.62551,1.67543 -0.43916,1.23641 -5.46653,1.17049 -8.26723,-0.11902 l -1.84942,-0.8606 1.79447,-0.0915 c 0.98916,-0.0572 2.60189,0.15751 3.62551,0.48523 1.01917,0.32628 1.96529,0.49086 2.08743,0.37537 0.12215,-0.1155 -0.31209,-0.30445 -0.96133,-0.4303 -1.52827,-0.29627 -1.76475,-0.71767 -0.57677,-0.99793 0.14449,-0.0341 0.32333,-0.0469 0.52183,-0.0366 z"
         id="path2941"
         inkscape:connector-curvature="0"
         transform="matrix(33.655903,0,0,33.655903,5514.0445,-6765.3048)" />
      <path
         style="opacity:1;fill:#2e3436;fill-opacity:1;fill-rule:nonzero;stroke:none;stroke-width:0.31205788"
         d="m -137.81727,228.93874 c 0.0535,-8.7e-4 0.10769,0.003 0.17389,0.009 0.31807,0.0281 0.79993,0.13229 1.44657,0.31128 0.81833,0.22649 1.52037,0.22444 2.10572,-0.0275 1.29133,-0.55565 3.37853,-0.0422 4.73332,1.16273 l 1.19935,1.05287 -1.11697,-0.22889 c -0.61226,-0.12923 -1.67721,-0.47072 -2.37118,-0.74158 -0.69403,-0.27088 -1.33548,-0.42697 -1.41909,-0.34791 -0.0836,0.079 0.65766,0.42112 1.6388,0.76905 0.98111,0.34793 1.93077,0.789 2.12403,0.95216 0.50173,0.42357 -1.63632,0.34782 -3.95513,-0.12817 -2.36711,-0.48595 -4.57332,-1.51246 -4.87062,-2.26137 -0.13762,-0.34674 -0.0631,-0.51606 0.31131,-0.52186 z"
         id="path2943"
         inkscape:connector-curvature="0"
         transform="matrix(33.655903,0,0,33.655903,5514.0445,-6765.3048)" />
      <path
         style="opacity:1;fill:#2e3436;fill-opacity:1;fill-rule:nonzero;stroke:none;stroke-width:0.31205788"
         d="m -120.37639,229.04864 c 0.097,-8.7e-4 0.20979,0.002 0.32957,0.009 1.67709,0.10549 5.58971,0.70608 12.14,1.8036 6.38207,1.06934 9.835445,1.47537 12.881545,1.51063 l 4.15659,0.0549 -0.8057,0.81482 c -1.83425,1.85728 -4.82978,2.57552 -8.706735,2.07826 -1.26006,-0.16161 -4.92928,-1.01149 -8.14828,-1.89515 -3.21892,-0.88367 -7.74327,-1.96606 -10.06168,-2.38955 -2.62061,-0.47869 -4.0378,-0.86235 -3.73539,-1.0437 0.26755,-0.16045 0.81816,-0.29741 1.22683,-0.30213 0.62692,-0.007 0.66995,-0.0847 0.20142,-0.40283 -0.21151,-0.14362 -0.13322,-0.21772 0.2655,-0.22889 0.0747,-0.002 0.15941,-0.008 0.25633,-0.009 z"
         id="path2945"
         inkscape:connector-curvature="0"
         transform="matrix(33.655903,0,0,33.655903,5514.0445,-6765.3048)" />
      <path
         style="opacity:1;fill:#2e3436;fill-opacity:1;fill-rule:nonzero;stroke:none;stroke-width:0.31205788"
         d="m -148.75792,229.35084 c 0.0635,-0.002 0.12594,0.006 0.19226,0.009 0.31839,0.0149 0.66536,0.086 1.14439,0.21057 1.78016,0.46293 3.58818,1.7037 3.241,2.2339 -0.3166,0.48353 -4.83811,0.14948 -6.18898,-0.45776 -1.30971,-0.58873 -1.27103,-0.80234 0.21058,-1.55641 0.55831,-0.28417 0.95615,-0.42576 1.40075,-0.43945 z"
         id="path2947"
         inkscape:connector-curvature="0"
         transform="matrix(33.655903,0,0,33.655903,5514.0445,-6765.3048)" />
      <path
         style="opacity:1;fill:#2e3436;fill-opacity:1;fill-rule:nonzero;stroke:none;stroke-width:0.31205788"
         d="m -138.8793,230.68771 c 0.61708,0.009 1.60963,0.34959 2.54519,0.92468 1.14605,0.70451 1.27621,0.86865 0.55843,0.71412 -0.51024,-0.10984 -1.3483,-0.30442 -1.85851,-0.41198 -0.51024,-0.10759 -0.19034,0.11414 0.71415,0.48523 1.07447,0.44085 1.45701,0.74067 1.10776,0.87891 -0.52388,0.20733 -4.05764,0.0222 -5.92352,-0.32044 -0.61989,-0.11384 -1.09459,-0.53639 -1.36412,-1.22682 -0.49167,-1.2593 -0.26488,-1.30861 2.27048,-0.47607 0.96531,0.31697 1.84265,0.46679 1.96842,0.34791 0.12577,-0.11891 0.037,-0.20986 -0.20139,-0.21058 -0.23834,-5.8e-4 -0.42213,-0.14401 -0.42116,-0.33875 0,-0.24427 0.23401,-0.37142 0.60427,-0.36621 z"
         id="path2949"
         inkscape:connector-curvature="0"
         transform="matrix(33.655903,0,0,33.655903,5514.0445,-6765.3048)" />
      <path
         style="opacity:1;fill:#2e3436;fill-opacity:1;fill-rule:nonzero;stroke:none;stroke-width:0.31205788"
         d="m -127.86545,230.72421 c 0.019,-0.004 0.0453,-5.8e-4 0.0732,0 0.13437,0.003 0.3697,0.0652 0.74157,0.15564 0.6122,0.14888 2.35485,0.49515 3.87271,0.77821 1.51783,0.28305 4.26284,1.00121 6.07914,1.60218 1.81629,0.60096 3.36188,1.03695 3.45161,0.95216 0.2195,-0.20761 -4.83478,-1.92432 -7.52573,-2.55434 -2.88818,-0.67622 -1.04649,-0.69581 2.55433,-0.0275 4.05348,0.75235 5.90514,1.19695 10.1258,2.42617 2.04015,0.59415 5.14184,1.36302 6.86653,1.70289 l 3.121945,0.60425 -1.00706,0.62256 c -3.519755,2.18064 -6.662135,2.07544 -12.524515,-0.45776 -4.90479,-2.11942 -10.12653,-3.82581 -13.97105,-4.55936 -0.64932,-0.12389 -1.39832,-0.47464 -1.66627,-0.78736 -0.23735,-0.27704 -0.325,-0.42835 -0.19226,-0.45777 z"
         id="path2951"
         inkscape:connector-curvature="0"
         transform="matrix(33.655903,0,0,33.655903,5514.0445,-6765.3048)" />
      <path
         style="opacity:1;fill:#2e3436;fill-opacity:1;fill-rule:nonzero;stroke:none;stroke-width:0.31205788"
         d="m -152.42006,231.28271 c 0.0656,-0.009 0.13695,-0.007 0.21058,0 0.29467,0.0267 0.67092,0.16713 1.26346,0.45777 1.91725,0.94051 2.22285,1.53195 0.63168,1.22681 -0.92558,-0.1775 -1.11527,-0.13744 -0.70494,0.13733 0.30543,0.20452 0.90066,0.38492 1.30921,0.40284 0.7428,0.0326 0.73537,0.0458 -0.009,0.3479 -1.06853,0.43352 -2.66345,0.4033 -4.31216,-0.0732 -1.13198,-0.3272 -1.3533,-0.51467 -1.02544,-0.88807 0.27652,-0.31489 0.92676,-0.41425 1.95011,-0.29297 1.39075,0.16481 1.36986,0.0472 -0.0915,-0.40284 -0.40609,-0.12506 -0.3642,-0.25323 0.18311,-0.63172 0.22714,-0.1571 0.39834,-0.2566 0.59508,-0.28382 z"
         id="path2953"
         inkscape:connector-curvature="0"
         transform="matrix(33.655903,0,0,33.655903,5514.0445,-6765.3048)" />
      <path
         style="opacity:1;fill:#2e3436;fill-opacity:1;fill-rule:nonzero;stroke:none;stroke-width:0.31205788"
         d="m -134.10022,232.23467 c 1.51116,-0.10244 16.8348,6.64108 16.8458,7.4616 0.005,0.38349 -4.04474,0.3078 -5.52068,-0.10071 -1.47081,-0.40713 -11.49931,-5.76353 -11.51742,-6.15238 -0.026,-0.55968 1.10296,-0.19531 4.47699,1.42823 4.19789,2.01995 4.34814,2.09061 3.86356,1.62049 -0.44852,-0.43511 -5.8771,-3.13616 -7.37006,-3.66213 -0.58915,-0.20756 -0.9876,-0.45573 -0.87892,-0.55848 0.019,-0.018 0.052,-0.0333 0.10073,-0.0366 z"
         id="path2955"
         inkscape:connector-curvature="0"
         transform="matrix(33.655903,0,0,33.655903,5514.0445,-6765.3048)" />
      <path
         style="opacity:1;fill:#2e3436;fill-opacity:1;fill-rule:nonzero;stroke:none;stroke-width:0.31205788"
         d="m -127.39854,232.42697 c 0.0365,-0.006 0.11264,0.01 0.20143,0.0183 1.24303,0.12277 6.96972,1.59128 9.60394,2.49941 1.85155,0.6383 3.42253,1.27783 8.03839,3.29591 0.85526,0.37391 1.84789,0.69473 2.20645,0.69581 1.28449,0.004 -0.10839,0.73319 -1.95008,1.0254 -2.24451,0.3561 -4.64137,0.12184 -6.82991,-0.70496 -0.91766,-0.34669 -2.74059,-1.24396 -4.06496,-1.9684 -1.32433,-0.72445 -3.76163,-1.90836 -5.39247,-2.63673 -5.26636,-2.35215 -5.03568,-2.20029 -3.24101,-2.02333 0.86798,0.0856 1.51382,0.0154 1.40991,-0.14649 -0.0138,-0.0213 -0.0182,-0.0487 0.0184,-0.0549 z"
         id="path2957"
         inkscape:connector-curvature="0"
         transform="matrix(33.655903,0,0,33.655903,5514.0445,-6765.3048)" />
      <path
         style="opacity:1;fill:#2e3436;fill-opacity:1;fill-rule:nonzero;stroke:none;stroke-width:0.31205788"
         d="m -145.95639,232.77492 c 0.11313,-0.003 0.22172,-0.003 0.33875,0 1.56019,0.0437 3.40644,0.64848 4.22977,1.60218 0.40387,0.46788 0.34241,0.59727 -0.40284,0.87892 -1.35795,0.51316 -3.49304,0.4223 -5.13617,-0.21058 -1.6398,-0.63162 -1.76946,-0.87813 -0.89721,-1.70289 0.39053,-0.36926 1.07575,-0.54655 1.8677,-0.56763 z"
         id="path2959"
         inkscape:connector-curvature="0"
         transform="matrix(33.655903,0,0,33.655903,5514.0445,-6765.3048)" />
      <path
         style="opacity:1;fill:#2e3436;fill-opacity:1;fill-rule:nonzero;stroke:none;stroke-width:0.31205788"
         d="m -155.99065,233.86441 c 0.056,-1.1e-4 0.11582,0.004 0.17398,0.009 0.46499,0.0446 0.99565,0.27557 1.63877,0.6958 l 1.09863,0.70496 -1.48316,-0.21057 c -1.09995,-0.1664 -1.33607,-0.13271 -0.92465,0.14648 0.3054,0.20727 0.97248,0.39164 1.48313,0.412 0.91055,0.0363 0.91219,0.0573 -0.18311,0.53101 -1.18183,0.5111 -4.01519,0.61188 -5.11779,0.19225 -0.55949,-0.2129 -0.47017,-0.33911 0.56758,-0.91553 0.67059,-0.37244 1.44077,-0.89086 1.71206,-1.14441 0.30452,-0.28459 0.64286,-0.42038 1.03456,-0.42115 z"
         id="path2961"
         inkscape:connector-curvature="0"
         transform="matrix(33.655903,0,0,33.655903,5514.0445,-6765.3048)" />
      <path
         style="opacity:1;fill:#2e3436;fill-opacity:1;fill-rule:nonzero;stroke:none;stroke-width:0.31205788"
         d="m -135.87638,233.89191 c 1.27726,0.007 11.88472,5.87739 11.13289,6.16154 -1.00601,0.38021 -2.85779,0.21127 -4.79736,-0.43946 -1.10282,-0.36999 -3.1999,-1.32768 -4.66923,-2.13319 -1.46938,-0.8055 -3.64493,-1.89811 -4.82489,-2.42616 -1.97111,-0.88213 -2.0547,-0.97711 -1.09866,-1.09865 0.63566,-0.0808 1.99393,0.29786 3.48818,0.97047 1.34546,0.60559 2.50248,1.03632 2.58183,0.96131 0.0793,-0.075 -0.44199,-0.40348 -1.16273,-0.73242 -1.3978,-0.638 -1.72072,-1.26914 -0.65003,-1.26344 z"
         id="path2963"
         inkscape:connector-curvature="0"
         transform="matrix(33.655903,0,0,33.655903,5514.0445,-6765.3048)" />
      <path
         style="opacity:1;fill:#2e3436;fill-opacity:1;fill-rule:nonzero;stroke:none;stroke-width:0.31205788"
         d="m -150.68059,234.70678 c 1.92261,0.0179 2.35325,0.152 3.34173,1.06201 1.15779,1.06584 1.49153,1.84734 0.65919,1.51979 -0.25488,-0.1003 -0.79136,-0.29829 -1.19936,-0.43029 -0.70394,-0.22778 -0.70292,-0.21042 -0.0458,0.19226 0.56039,0.34334 0.58702,0.48499 0.17396,0.73242 -0.76547,0.45849 -2.19194,0.3656 -4.39455,-0.2655 l -1.96839,-0.55848 1.01621,-0.63171 c 0.56212,-0.34866 1.38186,-0.56298 1.82192,-0.48524 0.47236,0.0834 0.31748,-0.0843 -0.39369,-0.40283 -0.66255,-0.29675 -1.19962,-0.58515 -1.19933,-0.64087 2.6e-4,-0.0557 0.97567,-0.10285 2.18807,-0.0916 z"
         id="path2965"
         inkscape:connector-curvature="0"
         transform="matrix(33.655903,0,0,33.655903,5514.0445,-6765.3048)" />
      <path
         style="opacity:1;fill:#2e3436;fill-opacity:1;fill-rule:nonzero;stroke:none;stroke-width:0.31205788"
         d="m -140.25261,235.5399 c 0.0747,0.005 0.15072,0.0189 0.2289,0.0275 0.9379,0.10279 2.4102,0.76178 4.97131,2.14235 1.32486,0.71418 2.9534,1.56114 3.64382,1.88599 1.36734,0.64334 1.19424,0.93129 -0.85142,1.40993 -1.93823,0.45348 -3.5665,0.0144 -8.30389,-2.27968 l -4.56855,-2.21559 1.42825,-0.22888 c 1.01276,-0.16894 1.79567,-0.0486 2.79237,0.41198 0.76441,0.35325 1.40007,0.52358 1.40078,0.38453 0,-0.13906 -0.45569,-0.46267 -1.01625,-0.71412 -0.95112,-0.42662 -0.97839,-0.47513 -0.28381,-0.72326 0.10845,-0.0387 0.21819,-0.0784 0.34788,-0.0916 0.0649,-0.007 0.13595,-0.0138 0.21061,-0.009 z"
         id="path2967"
         inkscape:connector-curvature="0"
         transform="matrix(33.655903,0,0,33.655903,5514.0445,-6765.3048)" />
      <path
         style="opacity:1;fill:#2e3436;fill-opacity:1;fill-rule:nonzero;stroke:none;stroke-width:0.31205788"
         d="m -160.8979,236.64768 c 0.29317,8.7e-4 0.99155,0.18815 1.56555,0.41198 l 1.04374,0.40284 -0.9247,0.28381 c -0.7995,0.25509 -0.75456,0.29293 0.2838,0.15565 0.87132,-0.11521 1.20123,-0.0293 1.19936,0.32958 -0.004,0.83567 -2.50362,1.10647 -4.33963,0.46692 -1.90535,-0.66369 -1.52059,-1.18366 0.80566,-1.07117 0.40855,0.0198 0.53871,-0.0536 0.28384,-0.15564 -0.6337,-0.2537 -0.57332,-0.82598 0.0824,-0.82397 z"
         id="path2969"
         inkscape:connector-curvature="0"
         transform="matrix(33.655903,0,0,33.655903,5514.0445,-6765.3048)" />
      <path
         style="opacity:1;fill:#2e3436;fill-opacity:1;fill-rule:nonzero;stroke:none;stroke-width:0.31205788"
         d="m -145.19651,237.30687 c 0.22567,0.0149 0.56618,0.15293 1.14441,0.41198 2.91443,1.30564 7.48995,3.61494 7.48904,3.79031 -0.004,0.74645 -3.51577,1.08185 -5.53893,0.52185 -0.69061,-0.19115 -2.44423,-1.02989 -3.891,-1.86768 -2.60499,-1.50845 -2.63056,-1.54966 -1.4191,-1.65711 0.80857,-0.0717 1.77493,0.21076 2.84732,0.81482 2.24357,1.2637 2.63076,1.14831 0.48523,-0.14649 -1.1414,-0.6888 -1.67291,-1.22608 -1.5381,-1.5564 0.0878,-0.21498 0.19551,-0.32623 0.42113,-0.31128 z"
         id="path2971"
         inkscape:connector-curvature="0"
         transform="matrix(33.655903,0,0,33.655903,5514.0445,-6765.3048)" />
      <path
         style="opacity:1;fill:#2e3436;fill-opacity:1;fill-rule:nonzero;stroke:none;stroke-width:0.31205788"
         d="m -156.64984,237.46251 c 0.13276,-5.9e-4 0.2906,0.003 0.46695,0.009 0.23516,0.009 0.50811,0.0325 0.80564,0.0549 1.96842,0.14871 4.29636,1.06676 3.82696,1.51063 -0.10526,0.0995 -1.12964,-0.0868 -2.28883,-0.41199 -1.15919,-0.3252 -2.18754,-0.5078 -2.28886,-0.41199 -0.10131,0.0958 0.54041,0.33663 1.42825,0.55848 2.72438,0.68073 2.90422,0.77272 2.90223,1.16272 -0.003,0.49605 -5.10221,0.14958 -5.658,-0.38452 -0.29355,-0.2821 -0.23001,-0.46888 0.21971,-0.63172 0.72966,-0.26417 0.81816,-1.05388 0.15569,-1.35498 -0.14338,-0.0652 0.032,-0.0987 0.43026,-0.10072 z"
         id="path2973"
         inkscape:connector-curvature="0"
         transform="matrix(33.655903,0,0,33.655903,5514.0445,-6765.3048)" />
      <path
         style="opacity:1;fill:#2e3436;fill-opacity:1;fill-rule:nonzero;stroke:none;stroke-width:0.31205788"
         d="m -150.34178,238.65268 c 0.44506,0.0169 1.45938,0.56885 3.74449,1.86769 1.52801,0.86845 3.35431,1.76438 4.06498,2.00502 l 1.30924,0.44861 -1.10785,0.58594 c -1.56841,0.82996 -3.83842,0.48536 -6.76575,-1.03455 -3.36215,-1.7457 -3.28515,-1.68655 -2.39868,-1.99587 0.5624,-0.19625 1.27372,-0.008 2.48106,0.64088 0.93588,0.50281 1.77469,0.83867 1.8677,0.75074 0.093,-0.0879 -0.66469,-0.60164 -1.68459,-1.13526 -1.22393,-0.64039 -1.83329,-1.19329 -1.83107,-1.63881 0.003,-0.3179 0.0535,-0.50455 0.32047,-0.49439 z"
         id="path2975"
         inkscape:connector-curvature="0"
         transform="matrix(33.655903,0,0,33.655903,5514.0445,-6765.3048)" />
      <path
         style="opacity:1;fill:#2e3436;fill-opacity:1;fill-rule:nonzero;stroke:none;stroke-width:0.31205788"
         d="m -160.85211,239.48582 c 0.0695,-0.0132 0.1786,0.002 0.3204,0.0183 0.18908,0.0217 0.44612,0.0752 0.78735,0.13733 1.69807,0.30908 3.49073,1.15078 3.48821,1.63881 0,0.19916 -0.44757,0.2502 -1.0254,0.12817 -0.78583,-0.16597 -0.89448,-0.11791 -0.46694,0.17395 0.42654,0.29111 0.17623,0.37926 -1.10776,0.37537 -0.91944,-0.003 -1.88897,-0.14581 -2.16069,-0.31128 -0.39571,-0.24107 -0.38439,-0.33707 0.1007,-0.5127 0.49576,-0.17948 0.52926,-0.37481 0.18311,-0.99793 -0.2289,-0.41214 -0.32769,-0.61051 -0.11898,-0.65004 z"
         id="path2977"
         inkscape:connector-curvature="0"
         transform="matrix(33.655903,0,0,33.655903,5514.0445,-6765.3048)" />
      <path
         style="opacity:1;fill:#2e3436;fill-opacity:1;fill-rule:nonzero;stroke:none;stroke-width:0.31205788"
         d="m -155.60615,240.6028 c 0.0566,-2e-4 0.12129,0.004 0.1923,0.009 0.85247,0.0681 2.66803,0.58592 3.55225,1.09864 0.67536,0.39159 2.32355,1.24075 3.68045,1.886 l 2.46275,1.18104 -1.28171,0.35706 c -1.79163,0.49898 -3.23925,0.21773 -6.48201,-1.26344 -2.20047,-1.00514 -2.70267,-1.38159 -2.38037,-1.74867 0.38395,-0.43719 1.15656,-0.34243 2.00502,0.21973 0.54129,0.3586 1.68368,0.70791 1.68459,0.52185 0,-0.088 -0.83945,-0.56548 -1.85851,-1.06202 -1.01905,-0.49655 -1.84075,-0.99572 -1.84025,-1.09864 0,-0.0727 0.0957,-0.10009 0.26549,-0.10071 z"
         id="path2979"
         inkscape:connector-curvature="0"
         transform="matrix(33.655903,0,0,33.655903,5514.0445,-6765.3048)" />
    </g>
    <flowRoot
       xml:space="preserve"
       id="flowRoot2989-3"
       style="font-style:normal;font-weight:normal;line-height:0.01%;font-family:sans-serif;letter-spacing:0px;word-spacing:0px;display:inline;fill:#2e3436;fill-opacity:1;stroke:none"
       transform="matrix(0.32857027,0,0,0.32857027,-25.503992,-744.34732)"
       inkscape:export-xdpi="34.559063"
       inkscape:export-ydpi="34.559063"><flowRegion
         id="flowRegion2985-6"
         style="fill:#2e3436;fill-opacity:1"><rect
           id="rect2983-7"
           width="2589.7786"
           height="733.62329"
           x="150.26019"
           y="1392.0918"
           style="fill:#2e3436;fill-opacity:1" /></flowRegion><flowPara
         id="flowPara2987-5"
         style="font-style:normal;font-variant:normal;font-weight:bold;font-stretch:normal;font-size:192px;line-height:1.25;font-family:'Linux Biolinum O';-inkscape-font-specification:'Linux Biolinum O Bold';text-align:center;letter-spacing:69.28805542px;text-anchor:middle;fill:#2e3436;fill-opacity:1">W I N G  A I R</flowPara></flowRoot>    <flowRoot
       xml:space="preserve"
       id="flowRoot2989-3-3"
       style="font-style:normal;font-weight:normal;line-height:0.01%;font-family:sans-serif;letter-spacing:0px;word-spacing:0px;display:inline;fill:#cc0000;fill-opacity:1;stroke:none"
       transform="matrix(0.32857027,0,0,0.32857027,-233.303,-682.71349)"
       inkscape:export-xdpi="20.573254"
       inkscape:export-ydpi="20.573254"><flowRegion
         id="flowRegion2985-6-5"
         style="fill:#cc0000;fill-opacity:1"><rect
           id="rect2983-7-6"
           width="2589.7786"
           height="733.62329"
           x="150.26019"
           y="1392.0918"
           style="fill:#cc0000;fill-opacity:1" /></flowRegion><flowPara
         style="font-style:normal;font-variant:normal;font-weight:bold;font-stretch:normal;font-size:192px;line-height:1.25;font-family:'Linux Biolinum O';-inkscape-font-specification:'Linux Biolinum O Bold';text-align:center;letter-spacing:69.28805542px;text-anchor:middle;fill:#cc0000;fill-opacity:1"
         id="flowPara4696">WNG727</flowPara></flowRoot>    <flowRoot
       xml:space="preserve"
       id="flowRoot2989-3-3-9"
       style="font-style:normal;font-weight:normal;line-height:0.01%;font-family:sans-serif;letter-spacing:0px;word-spacing:0px;display:inline;fill:#cc0000;fill-opacity:1;stroke:none"
       transform="matrix(0.32857027,0,0,0.32857027,-220.50496,-575.79183)"
       inkscape:export-xdpi="20.573254"
       inkscape:export-ydpi="20.573254"><flowRegion
         id="flowRegion2985-6-5-1"
         style="fill:#cc0000;fill-opacity:1"><rect
           id="rect2983-7-6-2"
           width="2589.7786"
           height="733.62329"
           x="150.26019"
           y="1392.0918"
           style="fill:#cc0000;fill-opacity:1" /></flowRegion><flowPara
         style="font-style:normal;font-variant:normal;font-weight:bold;font-stretch:normal;font-size:192px;line-height:1.25;font-family:'Linux Biolinum O';-inkscape-font-specification:'Linux Biolinum O Bold';text-align:center;letter-spacing:69.28805542px;text-anchor:middle;fill:#cc0000;fill-opacity:1"
         id="flowPara4724">WNG707</flowPara></flowRoot>    <flowRoot
       xml:space="preserve"
       id="flowRoot2989-3-3-0"
       style="font-style:normal;font-weight:normal;line-height:0.01%;font-family:sans-serif;letter-spacing:0px;word-spacing:0px;display:inline;fill:#cc0000;fill-opacity:1;stroke:none"
       transform="matrix(0.32857027,0,0,0.32857027,-240.01867,-515.08251)"
       inkscape:export-xdpi="20.573254"
       inkscape:export-ydpi="20.573254"><flowRegion
         id="flowRegion2985-6-5-9"
         style="fill:#cc0000;fill-opacity:1"><rect
           id="rect2983-7-6-3"
           width="2589.7786"
           height="733.62329"
           x="150.26019"
           y="1392.0918"
           style="fill:#cc0000;fill-opacity:1" /></flowRegion><flowPara
         style="font-style:normal;font-variant:normal;font-weight:bold;font-stretch:normal;font-size:192px;line-height:1.25;font-family:'Linux Biolinum O';-inkscape-font-specification:'Linux Biolinum O Bold';text-align:center;letter-spacing:69.28805542px;text-anchor:middle;fill:#cc0000;fill-opacity:1"
         id="flowPara4740">WNG88</flowPara></flowRoot>    <flowRoot
       xml:space="preserve"
       id="flowRoot2989-3-3-06"
       style="font-style:normal;font-weight:normal;line-height:0.01%;font-family:sans-serif;letter-spacing:0px;word-spacing:0px;display:inline;fill:#cc0000;fill-opacity:1;stroke:none"
       transform="matrix(0.32857027,0,0,0.32857027,-227.00953,-629.99658)"
       inkscape:export-xdpi="20.573254"
       inkscape:export-ydpi="20.573254"><flowRegion
         id="flowRegion2985-6-5-2"
         style="fill:#cc0000;fill-opacity:1"><rect
           id="rect2983-7-6-6"
           width="2589.7786"
           height="733.62329"
           x="150.26019"
           y="1392.0918"
           style="fill:#cc0000;fill-opacity:1" /></flowRegion><flowPara
         style="font-style:normal;font-variant:normal;font-weight:bold;font-stretch:normal;font-size:192px;line-height:1.25;font-family:'Linux Biolinum O';-inkscape-font-specification:'Linux Biolinum O Bold';text-align:center;letter-spacing:69.28805542px;text-anchor:middle;fill:#cc0000;fill-opacity:1"
         id="flowPara4696-1">WNG144</flowPara></flowRoot>  </g>
</svg>
